<svg xmlns="http://www.w3.org/2000/svg" width="98.79" height="26" viewBox="0 0 98.79 26">
  <metadata><?xpacket begin="﻿" id="W5M0MpCehiHzreSzNTczkc9d"?>
<x:xmpmeta xmlns:x="adobe:ns:meta/" x:xmptk="Adobe XMP Core 5.6-c142 79.160924, 2017/07/13-01:06:39        ">
   <rdf:RDF xmlns:rdf="http://www.w3.org/1999/02/22-rdf-syntax-ns#">
      <rdf:Description rdf:about=""/>
   </rdf:RDF>
</x:xmpmeta>
                                                                                                    
                                                                                                    
                                                                                                    
                                                                                                    
                                                                                                    
                                                                                                    
                                                                                                    
                                                                                                    
                                                                                                    
                                                                                                    
                                                                                                    
                                                                                                    
                                                                                                    
                                                                                                    
                                                                                                    
                                                                                                    
                                                                                                    
                                                                                                    
                                                                                                    
                                                                                                    
                           
<?xpacket end="w"?></metadata>
<defs>
    <style>
      .cls-1 {
        fill: #fff;
        fill-rule: evenodd;
      }
    </style>
  </defs>
  <path class="cls-1" d="M1184.32,4069.07a18.169,18.169,0,0,1-1.58,3.03c-1.03,1.61-2.48,3.6-4.28,3.62-1.61,0-2.02-1.07-4.19-1.06s-2.63,1.07-4.22,1.06c-1.81,0-3.18-1.82-4.21-3.42-2.89-4.49-3.19-9.75-1.41-12.55a6.379,6.379,0,0,1,5.14-3.16c1.87,0,3.11,1.07,4.66,1.07s2.47-1.07,4.66-1.07a6.193,6.193,0,0,1,4.7,2.54A5.543,5.543,0,0,0,1184.32,4069.07Zm-7.08-14.26a5.564,5.564,0,0,0,1.16-4.05,5.736,5.736,0,0,0-3.73,2.05,5.15,5.15,0,0,0-1.2,3.95A4.873,4.873,0,0,0,1177.24,4054.81Zm16.47-1.17a1.655,1.655,0,0,0-1.3.55,2.167,2.167,0,0,0-.47,1.51,2.214,2.214,0,0,0,.46,1.52,1.621,1.621,0,0,0,1.31.54,5.11,5.11,0,0,0,1.16-.19v0.51a3.682,3.682,0,0,1-1.28.19,2.168,2.168,0,0,1-1.7-.67,2.785,2.785,0,0,1-.58-1.91,2.985,2.985,0,0,1,.29-1.35,2.065,2.065,0,0,1,.83-0.9,2.511,2.511,0,0,1,1.28-.32,3.112,3.112,0,0,1,1.38.29l-0.25.5A2.722,2.722,0,0,0,1193.71,4053.64Zm4.37,0.8h0.63l-1.62,1.81,1.75,1.94h-0.66l-1.71-1.9v1.9h-0.58v-3.75h0.58v1.82Zm3.76,3.75-0.11-.53h0a1.607,1.607,0,0,1-.59.48,1.623,1.623,0,0,1-.69.12,1.234,1.234,0,0,1-.87-0.28,1.069,1.069,0,0,1-.32-0.82c0-.76.61-1.15,1.81-1.17h0.64v-0.23a0.97,0.97,0,0,0-.19-0.66,0.8,0.8,0,0,0-.59-0.21,2.472,2.472,0,0,0-1.06.29l-0.17-.43a2.953,2.953,0,0,1,.58-0.24,2.994,2.994,0,0,1,.66-0.09,1.458,1.458,0,0,1,.99.3,1.243,1.243,0,0,1,.32.95v2.56Zm-1.28-.4a1.16,1.16,0,0,0,.83-0.29,1.067,1.067,0,0,0,.3-0.81v-0.34h-0.58a2.023,2.023,0,0,0-.97.21,0.624,0.624,0,0,0-.3.58,0.591,0.591,0,0,0,.19.47,0.767,0.767,0,0,0,.53.19v-0.01Zm3.36-3.35v1.37a0.626,0.626,0,0,0,.75.66,1.853,1.853,0,0,0,.58-0.09,3.515,3.515,0,0,0,.64-0.33v-1.61h0.59v3.75h-0.59v-1.69a2.577,2.577,0,0,1-.66.34,2.025,2.025,0,0,1-.69.1,1.221,1.221,0,0,1-.88-0.29,1.048,1.048,0,0,1-.32-0.8v-1.41h0.58Zm6.06,3.75-0.11-.53h0a1.5,1.5,0,0,1-.58.48,1.668,1.668,0,0,1-.7.12,1.249,1.249,0,0,1-.87-0.28,1.069,1.069,0,0,1-.32-0.82c0-.76.61-1.15,1.82-1.17h0.63v-0.23a0.97,0.97,0,0,0-.19-0.66,0.789,0.789,0,0,0-.58-0.21,2.434,2.434,0,0,0-1.06.29l-0.18-.43a3.228,3.228,0,0,1,.58-0.24,2.994,2.994,0,0,1,.66-0.09,1.458,1.458,0,0,1,.99.3,1.243,1.243,0,0,1,.32.95v2.56Zm-1.28-.4a1.16,1.16,0,0,0,.83-0.29,1.067,1.067,0,0,0,.3-0.81v-0.34h-0.58a2.023,2.023,0,0,0-.97.21,0.624,0.624,0,0,0-.3.58,0.591,0.591,0,0,0,.19.47,0.767,0.767,0,0,0,.53.19v-0.01Zm5.39-2.86h-1.22v3.26h-0.58v-3.26h-1.2v-0.49h2.98Zm1.3,1.05h1.17c0.96,0,1.43.35,1.43,1.06a1.006,1.006,0,0,1-.37.84,1.78,1.78,0,0,1-1.1.3h-1.67v-3.74h0.58Zm0,0.49v1.26h1.1a1.2,1.2,0,0,0,.69-0.16,0.519,0.519,0,0,0,.24-0.47,0.538,0.538,0,0,0-.23-0.46,1.37,1.37,0,0,0-.72-0.14Zm8.43-1.08a0.713,0.713,0,0,1-.21.59,1.175,1.175,0,0,1-.58.26v0.02a1.215,1.215,0,0,1,.7.29,0.768,0.768,0,0,1,.22.58,0.955,0.955,0,0,1-.39.81,1.812,1.812,0,0,1-1.11.28h-1.65v-3.78h1.63C1223.36,4054.44,1223.82,4054.76,1223.82,4055.39Zm-0.55.06a0.407,0.407,0,0,0-.21-0.39,1.405,1.405,0,0,0-.64-0.12h-1.06v1.04h0.96a1.57,1.57,0,0,0,.74-0.13,0.448,0.448,0,0,0,.21-0.41v0.01Zm0.1,1.62a0.482,0.482,0,0,0-.23-0.44,1.539,1.539,0,0,0-.76-0.14h-1.03v1.24h1.04c0.66,0,.98-0.22.98-0.66h0Zm-24.02,16.02-1.07-3.01h-4.14l-1.06,3.01h-1.87l4.05-10.89h1.92l4.05,10.89h-1.88Zm-1.54-4.54-1.03-2.95q-0.1-.3-0.3-0.93c-0.14-.43-0.23-0.74-0.28-0.94a16.983,16.983,0,0,1-.58,2l-0.98,2.83Zm8.82,4.69a2.836,2.836,0,0,1-2.41-1.12h-0.11c0.07,0.7.11,1.12,0.11,1.26v3.36h-1.75v-11.85h1.4c0.04,0.15.12,0.52,0.25,1.1h0.08a2.743,2.743,0,0,1,2.46-1.25,2.854,2.854,0,0,1,2.36,1.11,4.967,4.967,0,0,1,.86,3.12,5.036,5.036,0,0,1-.86,3.15A2.852,2.852,0,0,1,1206.63,4073.24Zm-0.42-7.07a1.817,1.817,0,0,0-1.52.58,3.187,3.187,0,0,0-.47,1.95v0.26a3.794,3.794,0,0,0,.47,2.21,1.736,1.736,0,0,0,1.54.67,1.578,1.578,0,0,0,1.4-.74,3.812,3.812,0,0,0,.48-2.12,3.7,3.7,0,0,0-.48-2.08,1.628,1.628,0,0,0-1.43-.74Zm9.86,7.07a2.836,2.836,0,0,1-2.41-1.12h-0.11c0.07,0.7.11,1.12,0.11,1.26v3.36h-1.75v-11.85h1.4c0.04,0.15.12,0.52,0.25,1.1h0.09a2.716,2.716,0,0,1,2.45-1.25,2.825,2.825,0,0,1,2.38,1.11,6.1,6.1,0,0,1-.01,6.26A2.852,2.852,0,0,1,1216.07,4073.24Zm-0.42-7.07a1.786,1.786,0,0,0-1.51.58,3.128,3.128,0,0,0-.48,1.95v0.26a3.79,3.79,0,0,0,.47,2.16,1.754,1.754,0,0,0,1.54.68,1.586,1.586,0,0,0,1.4-.75,3.871,3.871,0,0,0,.49-2.11,3.719,3.719,0,0,0-.49-2.09,1.631,1.631,0,0,0-1.43-.69Zm16.07,3.98a2.7,2.7,0,0,1-1.05,2.26,4.461,4.461,0,0,1-2.87.83,6.92,6.92,0,0,1-3.01-.59V4071a8.188,8.188,0,0,0,1.58.54,6.277,6.277,0,0,0,1.55.2,2.431,2.431,0,0,0,1.55-.4,1.389,1.389,0,0,0,.04-2.1,6.885,6.885,0,0,0-1.9-.99,5.149,5.149,0,0,1-2.09-1.37,2.96,2.96,0,0,1-.58-1.86,2.607,2.607,0,0,1,.96-2.14,3.992,3.992,0,0,1,2.58-.77,7.526,7.526,0,0,1,3.1.68l-0.58,1.45a6.781,6.781,0,0,0-2.58-.58,1.963,1.963,0,0,0-1.3.37,1.214,1.214,0,0,0-.44.99,1.405,1.405,0,0,0,.17.73,2,2,0,0,0,.58.58,9.95,9.95,0,0,0,1.47.71,8.4,8.4,0,0,1,1.75.93,2.72,2.72,0,0,1,.81.97A2.957,2.957,0,0,1,1231.72,4070.15Zm4.95,1.68a4.214,4.214,0,0,0,1.27-.2v1.29a3.274,3.274,0,0,1-.74.21,5.014,5.014,0,0,1-.95.09c-1.64,0-2.47-.87-2.47-2.61v-4.4h-1.12v-0.77l1.2-.64,0.59-1.75h1.07v1.82h2.33v1.32h-2.33v4.4a1.229,1.229,0,0,0,.31.93A1.185,1.185,0,0,0,1236.67,4071.83Zm10.17-2.85a4.525,4.525,0,0,1-1.02,3.14,3.71,3.71,0,0,1-2.87,1.12,3.765,3.765,0,0,1-2.02-.52,3.442,3.442,0,0,1-1.36-1.49,5.253,5.253,0,0,1-.47-2.25,4.49,4.49,0,0,1,1.02-3.12,3.731,3.731,0,0,1,2.88-1.12,3.61,3.61,0,0,1,2.8,1.17A4.462,4.462,0,0,1,1246.84,4068.98Zm-5.95,0c0,1.89.69,2.84,2.09,2.84s2.08-.95,2.07-2.84c0-1.87-.7-2.81-2.09-2.81a1.766,1.766,0,0,0-1.58.72A3.639,3.639,0,0,0,1240.89,4068.98Zm12.1-4.24a4.27,4.27,0,0,1,.87.08l-0.17,1.62a2.84,2.84,0,0,0-.77-0.08,2.2,2.2,0,0,0-1.69.68,2.477,2.477,0,0,0-.65,1.75v4.29h-1.74v-8.18h1.36l0.23,1.45h0.08a3.4,3.4,0,0,1,1.06-1.17A2.585,2.585,0,0,1,1252.99,4064.74Zm5.96,8.5a3.955,3.955,0,0,1-2.99-1.11,4.28,4.28,0,0,1-1.08-3.07,4.7,4.7,0,0,1,1-3.15,3.492,3.492,0,0,1,2.75-1.17,3.337,3.337,0,0,1,2.55.99,3.765,3.765,0,0,1,.94,2.72v0.94h-5.45a2.713,2.713,0,0,0,.64,1.83,2.258,2.258,0,0,0,1.71.65,6.876,6.876,0,0,0,1.35-.14,7.816,7.816,0,0,0,1.34-.45v1.41a5.29,5.29,0,0,1-1.29.43A7.294,7.294,0,0,1,1258.95,4073.24Zm-0.32-7.18a1.749,1.749,0,0,0-1.33.53,2.535,2.535,0,0,0-.59,1.54h3.72a2.294,2.294,0,0,0-.49-1.54A1.706,1.706,0,0,0,1258.63,4066.06Z" transform="translate(-1163.34 -4050.75)"/>
</svg>
