<?xml version="1.0" encoding="utf-8"?>
<!-- Generator: Adobe Illustrator 25.2.3, SVG Export Plug-In . SVG Version: 6.00 Build 0)  -->
<svg version="1.1" id="Layer_1" xmlns="http://www.w3.org/2000/svg" xmlns:xlink="http://www.w3.org/1999/xlink" x="0px" y="0px"
	 viewBox="0 0 300 300" style="enable-background:new 0 0 300 300;" xml:space="preserve">
<style type="text/css">
	.st0{fill:#E65D24;}
</style>
<g>
	<path class="st0" d="M72.4,42c20.9,0,37.8,16.9,37.8,37.8c0,20.9-16.9,37.8-37.8,37.8c-20.9,0-37.8-16.9-37.8-37.8
		C34.5,59,51.5,42,72.4,42 M131,154.6c10.8-3.9,16.4-15.9,12.5-26.7c-3.9-10.8-15.9-16.4-26.7-12.5l-44.4,16.1l-44.4-16.1
		c-10.8-3.9-22.8,1.7-26.7,12.5c-3.9,10.8,1.7,22.8,12.5,26.7l36.9,13.6v14.7l-38.9,39.4c-8.2,8.2-8.2,21.4,0,29.6
		c8.2,8.2,21.4,8.2,29.6,0l31.1-31.1l31.1,31.1c8.2,8.2,21.4,8.2,29.6,0c8.2-8.2,8.2-21.4,0-29.6l-38.9-39.4v-14.7L131,154.6z"/>
	<path class="st0" d="M227.7,42c20.9,0,37.8,16.9,37.8,37.8c0,20.9-16.9,37.8-37.8,37.8c-20.9,0-37.8-16.9-37.8-37.8
		C189.8,59,206.8,42,227.7,42 M286.3,154.6c10.8-3.9,16.4-15.9,12.5-26.7c-3.9-10.8-15.9-16.4-26.7-12.5l-44.4,16.1l-44.4-16.1
		c-10.8-3.9-22.8,1.7-26.7,12.5c-3.9,10.8,1.7,22.8,12.5,26.7l36.9,13.6v14.7L167,222.3c-8.2,8.2-8.2,21.4,0,29.6
		c8.2,8.2,21.4,8.2,29.6,0l31.1-31.1l31.1,31.1c8.2,8.2,21.4,8.2,29.6,0c8.2-8.2,8.2-21.4,0-29.6l-38.9-39.4v-14.7L286.3,154.6z"/>
</g>
</svg>
