<svg xmlns="http://www.w3.org/2000/svg" xmlns:xlink="http://www.w3.org/1999/xlink" viewBox="0 0 194.26 44.32"><defs><style>.a{fill:none;}.b{fill:#fff;}.c{clip-path:url(#a);}.d{fill:url(#b);}.e{fill:url(#c);}.f{fill:url(#d);}.g{fill:url(#e);}</style><clipPath id="a"><path class="a" d="M29.15,15.95,19.88,10.6,2,.27C1-.3,0,0,0,1.27v42c0,.9.71,1.29,1.57.79l18.3-10.57,9.27-5.35L38.06,23c1-.6,1-1.43.06-1.91S29.15,15.95,29.15,15.95Z"/></clipPath><linearGradient id="b" x1="11.49" y1="186.75" x2="11.49" y2="141.2" gradientTransform="matrix(1, 0, 0, -1, 0, 186.04)" gradientUnits="userSpaceOnUse"><stop offset="0" stop-color="#5d7faf"/><stop offset="0.67" stop-color="#8ab6b6"/><stop offset="1" stop-color="#9cccb9"/></linearGradient><linearGradient id="c" x1="0.01" y1="175.44" x2="29.15" y2="175.44" gradientTransform="matrix(1, 0, 0, -1, 0, 186.04)" gradientUnits="userSpaceOnUse"><stop offset="0" stop-color="#81c0a9"/><stop offset="1" stop-color="#dfe798"/></linearGradient><linearGradient id="d" x1="14.58" y1="163.97" x2="14.58" y2="141.04" gradientTransform="matrix(1, 0, 0, -1, 0, 186.04)" gradientUnits="userSpaceOnUse"><stop offset="0" stop-color="#d25951"/><stop offset="0.09" stop-color="#ca5a59"/><stop offset="0.7" stop-color="#936190"/><stop offset="1" stop-color="#7e64a6"/></linearGradient><linearGradient id="e" x1="31.36" y1="170.09" x2="31.36" y2="157.86" gradientTransform="matrix(1, 0, 0, -1, 0, 186.04)" gradientUnits="userSpaceOnUse"><stop offset="0" stop-color="#df847a"/><stop offset="0.6" stop-color="#ebab79"/><stop offset="1" stop-color="#f1c178"/></linearGradient></defs><title>GooglePlay</title><path class="b" d="M58,27.24h6.86v9.32a19.75,19.75,0,0,1-3.22.77,22.8,22.8,0,0,1-3.33.23,8.37,8.37,0,0,1-6.5-2.49,10,10,0,0,1-2.29-7,9.39,9.39,0,0,1,2.58-7,9.69,9.69,0,0,1,7.1-2.53,13.81,13.81,0,0,1,5.51,1.12L63.6,22.19a10.72,10.72,0,0,0-4.52-1,6.09,6.09,0,0,0-4.7,1.87,7.22,7.22,0,0,0-1.75,5,7.61,7.61,0,0,0,1.56,5.17A5.63,5.63,0,0,0,58.66,35a14.72,14.72,0,0,0,3.16-.39V29.85H58Z"/><path class="b" d="M81.38,30.27a7.66,7.66,0,0,1-1.76,5.37,6.32,6.32,0,0,1-4.91,1.93,6.73,6.73,0,0,1-3.48-.89,5.87,5.87,0,0,1-2.32-2.55,8.69,8.69,0,0,1-.81-3.86,7.61,7.61,0,0,1,1.72-5.34,6.35,6.35,0,0,1,5-1.91,6.19,6.19,0,0,1,4.82,2A7.58,7.58,0,0,1,81.38,30.27Zm-10.22,0q0,4.86,3.59,4.86t3.55-4.86q0-4.81-3.58-4.81A3.05,3.05,0,0,0,72,26.7,6.33,6.33,0,0,0,71.16,30.27Z"/><path class="b" d="M97.26,30.27a7.67,7.67,0,0,1-1.76,5.37,6.32,6.32,0,0,1-4.91,1.93,6.73,6.73,0,0,1-3.48-.89,5.87,5.87,0,0,1-2.29-2.55A8.7,8.7,0,0,1,84,30.27a7.61,7.61,0,0,1,1.75-5.33A6.35,6.35,0,0,1,90.66,23a6.19,6.19,0,0,1,4.82,2A7.58,7.58,0,0,1,97.26,30.27ZM87,30.27q0,4.86,3.59,4.86t3.55-4.86q0-4.81-3.58-4.81a3.05,3.05,0,0,0-2.72,1.24A6.33,6.33,0,0,0,87,30.27Z"/><path class="b" d="M112.55,23.27v1.64l-2.4.44a3.84,3.84,0,0,1,.55,1.09,4.32,4.32,0,0,1,.22,1.37,4.2,4.2,0,0,1-1.5,3.42,6.27,6.27,0,0,1-4.13,1.24,6.72,6.72,0,0,1-1.22-.1,1.68,1.68,0,0,0-1,1.4.78.78,0,0,0,.45.72,3.9,3.9,0,0,0,1.66.24h2.45a5.45,5.45,0,0,1,3.53,1,3.48,3.48,0,0,1,1.21,2.86,4.15,4.15,0,0,1-2,3.68,10.36,10.36,0,0,1-5.69,1.29,7.85,7.85,0,0,1-4.38-1,3.28,3.28,0,0,1-1.48-2.91,3.09,3.09,0,0,1,.82-2.18,4.4,4.4,0,0,1,2.29-1.22,2.24,2.24,0,0,1-1-.82,2.06,2.06,0,0,1-.39-1.19,2,2,0,0,1,.44-1.33,5.13,5.13,0,0,1,1.32-1.08,3.91,3.91,0,0,1-1.77-1.53,4.51,4.51,0,0,1-.68-2.48,4.45,4.45,0,0,1,1.44-3.54A6.06,6.06,0,0,1,105.45,23a10,10,0,0,1,1.25.08,7.93,7.93,0,0,1,1,.17Zm-11,16.22a1.64,1.64,0,0,0,.87,1.49,4.78,4.78,0,0,0,2.44.52,7.38,7.38,0,0,0,3.63-.7,2.09,2.09,0,0,0,1.19-1.85,1.39,1.39,0,0,0-.65-1.3,5.26,5.26,0,0,0-2.43-.39h-2.26a3.17,3.17,0,0,0-2,.6,2,2,0,0,0-.82,1.64Zm1.27-11.67a2.83,2.83,0,0,0,.68,2,2.57,2.57,0,0,0,2,.71q2.59,0,2.59-2.77a3.14,3.14,0,0,0-.64-2.11,2.44,2.44,0,0,0-1.95-.74,2.51,2.51,0,0,0-2,.74A3.09,3.09,0,0,0,102.82,27.82Z"/><path class="b" d="M118.14,37.31h-3V17.56h3Z"/><path class="b" d="M128.53,37.57a6.8,6.8,0,0,1-5.12-1.91,7.26,7.26,0,0,1-1.85-5.26A8,8,0,0,1,123.28,25,5.92,5.92,0,0,1,128,23a5.79,5.79,0,0,1,4.39,1.69A6.45,6.45,0,0,1,134,29.36V31h-9.36a4.62,4.62,0,0,0,1.1,3.14,3.85,3.85,0,0,0,2.93,1.1A10.86,10.86,0,0,0,131,35a12.18,12.18,0,0,0,2.3-.78v2.42a9.15,9.15,0,0,1-2.21.74A13.57,13.57,0,0,1,128.53,37.57ZM128,25.28a3,3,0,0,0-2.28.9,4.29,4.29,0,0,0-1,2.63h6.37a3.89,3.89,0,0,0-.84-2.63,2.87,2.87,0,0,0-2.24-.9Z"/><path class="b" d="M156.74,24.36a5.41,5.41,0,0,1-1.92,4.46,8.39,8.39,0,0,1-5.42,1.55h-1.93v6.94h-3V18.75h5.35A8.09,8.09,0,0,1,155,20.17,5.11,5.11,0,0,1,156.74,24.36Zm-9.25,3.45h1.61a5.78,5.78,0,0,0,3.43-.81,3,3,0,0,0,1.09-2.54,2.88,2.88,0,0,0-1-2.39,4.83,4.83,0,0,0-3-.79h-2.11Z"/><path class="b" d="M163.11,37.31h-3V17.56h3Z"/><path class="b" d="M176.17,37.31l-.6-2h-.1a5.76,5.76,0,0,1-2,1.75,6.47,6.47,0,0,1-2.64.46,4.47,4.47,0,0,1-3.23-1.12,4.18,4.18,0,0,1-1.16-3.16A3.71,3.71,0,0,1,168,30a9.29,9.29,0,0,1,4.91-1.21l2.42-.08V28a2.85,2.85,0,0,0-.63-2,2.57,2.57,0,0,0-1.95-.67,6.73,6.73,0,0,0-2.07.32,15.62,15.62,0,0,0-1.9.75l-1-2.13a10.42,10.42,0,0,1,2.5-.91,11.53,11.53,0,0,1,2.56-.31,6.07,6.07,0,0,1,4,1.17,4.57,4.57,0,0,1,1.37,3.67v9.46Zm-4.44-2a3.7,3.7,0,0,0,2.61-.91,3.29,3.29,0,0,0,1-2.54V30.61l-1.8.08a6.15,6.15,0,0,0-3.07.71,2.14,2.14,0,0,0-1,1.92,1.88,1.88,0,0,0,.56,1.45,2.41,2.41,0,0,0,1.69.51Z"/><path class="b" d="M180.33,23.27h3.25l2.86,8a15.07,15.07,0,0,1,.86,3.2h.1a13.31,13.31,0,0,1,.42-1.69q.3-1,3.22-9.46h3.22l-6,15.91q-1.64,4.38-5.46,4.38a8.61,8.61,0,0,1-1.93-.22V41a7,7,0,0,0,1.54.15q2.16,0,3-2.5l.52-1.32Z"/><path class="b" d="M52.21,4A2.8,2.8,0,0,0,50,5a3.79,3.79,0,0,0-.82,2.58,3.87,3.87,0,0,0,.79,2.6,2.8,2.8,0,0,0,2.25.92,7.67,7.67,0,0,0,2-.32v.87a6.3,6.3,0,0,1-2.2.33,3.72,3.72,0,0,1-2.92-1.15,4.73,4.73,0,0,1-1-3.26,5.15,5.15,0,0,1,.5-2.32A3.55,3.55,0,0,1,50,3.67a4.33,4.33,0,0,1,2.2-.54,5.31,5.31,0,0,1,2.36.49l-.42.86A4.54,4.54,0,0,0,52.21,4Z"/><path class="b" d="M59.71,5.39h1.11l-2.77,3.1,3,3.32H59.82L56.89,8.56v3.25h-1V5.39h1V8.51Z"/><path class="b" d="M66.14,11.81l-.19-.91h0a2.7,2.7,0,0,1-1,.82,2.92,2.92,0,0,1-1.19.21,2.14,2.14,0,0,1-1.5-.49,1.8,1.8,0,0,1-.54-1.4q0-1.95,3.11-2h1.09v-.4a1.63,1.63,0,0,0-.33-1.12,1.34,1.34,0,0,0-1-.36,4.24,4.24,0,0,0-1.82.49l-.3-.74a4.57,4.57,0,0,1,1-.4,4.5,4.5,0,0,1,1.13-.15,2.45,2.45,0,0,1,1.7.51,2.13,2.13,0,0,1,.52,1.56v4.38Zm-2.2-.69a2,2,0,0,0,1.43-.5,1.84,1.84,0,0,0,.52-1.39V8.65h-1A3.54,3.54,0,0,0,63.22,9a1.09,1.09,0,0,0-.51,1,1,1,0,0,0,.32.8,1.33,1.33,0,0,0,.91.32Z"/><path class="b" d="M69.72,5.39V7.73q0,1.13,1.28,1.13a3.17,3.17,0,0,0,1-.16,5.2,5.2,0,0,0,1.1-.56V5.39h1v6.42h-1V8.91A4.62,4.62,0,0,1,72,9.5a3.78,3.78,0,0,1-1.19.17,2.13,2.13,0,0,1-1.51-.5,1.77,1.77,0,0,1-.54-1.37V5.39Z"/><path class="b" d="M80.11,11.81l-.19-.91h0a2.7,2.7,0,0,1-1,.82,2.92,2.92,0,0,1-1.19.21,2.14,2.14,0,0,1-1.5-.49,1.8,1.8,0,0,1-.54-1.4q0-1.95,3.11-2h1.09v-.4a1.63,1.63,0,0,0-.33-1.12,1.34,1.34,0,0,0-1-.36,4.24,4.24,0,0,0-1.82.49l-.3-.74a4.57,4.57,0,0,1,1-.4,4.5,4.5,0,0,1,1.13-.15,2.45,2.45,0,0,1,1.7.51,2.13,2.13,0,0,1,.55,1.63v4.38Zm-2.2-.69a2,2,0,0,0,1.43-.5,1.84,1.84,0,0,0,.52-1.39V8.65h-1A3.54,3.54,0,0,0,77.19,9a1.09,1.09,0,0,0-.51,1,1,1,0,0,0,.32.8,1.33,1.33,0,0,0,.91.32Z"/><path class="b" d="M87.16,6.22H85.07v5.59h-1V6.22H82V5.39h5.12Z"/><path class="b" d="M89.41,8h2q2.41,0,2.41,1.83a1.74,1.74,0,0,1-.64,1.45,3,3,0,0,1-1.88.5H88.41V5.39h1Zm0,.84V11h1.88a2.16,2.16,0,0,0,1.18-.27.91.91,0,0,0,.41-.81.87.87,0,0,0-.38-.78,2.35,2.35,0,0,0-1.25-.25Z"/><path class="b" d="M103.82,7a1.22,1.22,0,0,1-.36,1,2,2,0,0,1-1,.44v0a2.08,2.08,0,0,1,1.2.48,1.36,1.36,0,0,1,.38,1,1.62,1.62,0,0,1-.66,1.38,3.21,3.21,0,0,1-1.92.49H98.63V5.39h2.82Q103.82,5.39,103.82,7Zm-.95.09a.7.7,0,0,0-.36-.67,2.36,2.36,0,0,0-1.09-.2H99.59V8h1.65a2.62,2.62,0,0,0,1.27-.22.78.78,0,0,0,.4-.7Zm.18,2.78a.82.82,0,0,0-.4-.76,2.68,2.68,0,0,0-1.31-.24H99.58V11h1.79q1.73,0,1.73-1.14Z"/><g class="c"><polygon class="d" points="0.01 -0.71 0.01 22.06 0.01 44.84 22.98 22.07 0.01 -0.71"/><polygon class="e" points="29.15 15.95 19.88 10.59 0.01 -0.88 0.01 -0.71 22.98 22.07 29.15 15.95"/><polygon class="f" points="0.01 44.84 0.01 45 19.88 33.53 29.15 28.18 22.98 22.07 0.01 44.84"/><polygon class="g" points="29.15 15.95 22.98 22.07 29.15 28.18 39.75 22.06 29.15 15.95"/></g></svg>