<?xml version="1.0" encoding="utf-8"?>
<!-- Generator: Adobe Illustrator 25.2.3, SVG Export Plug-In . SVG Version: 6.00 Build 0)  -->
<svg version="1.1" id="illustration" xmlns="http://www.w3.org/2000/svg" xmlns:xlink="http://www.w3.org/1999/xlink" x="0px"
	 y="0px" viewBox="0 0 1000 592" style="enable-background:new 0 0 1000 592;" xml:space="preserve">
<style type="text/css">
	.st0{fill:#FFDFA6;}
	.st1{fill:none;stroke:#511B00;stroke-width:0.2897;stroke-miterlimit:10;}
	.st2{fill:#511B00;}
	.st3{fill:none;stroke:#511B00;stroke-width:0.3897;stroke-miterlimit:10;}
	.st4{fill:none;stroke:#511B00;stroke-width:0.2506;stroke-miterlimit:10;}
	.st5{fill-rule:evenodd;clip-rule:evenodd;fill:#FFDFA6;}
	.st6{fill-rule:evenodd;clip-rule:evenodd;fill:#FFFFFF;}
	.st7{fill-rule:evenodd;clip-rule:evenodd;fill:#511B00;}
	.st8{fill:#FFFFFF;}
	.st9{fill:#4F1A0F;}
	.st10{fill:url(#SVGID_1_);}
	.st11{fill:url(#SVGID_2_);}
	.st12{fill:url(#SVGID_3_);}
	.st13{fill:url(#SVGID_4_);}
	.st14{fill:url(#SVGID_5_);}
</style>
<g>
	<g>
		<g>
			<g>
				<path class="st0" d="M246.8,210.6L56.5,295.1c-1.5,0.7-3.3,0-3.9-1.5L0.4,176.1c-0.7-1.5,0-3.3,1.5-3.9l190.3-84.5
					c1.5-0.7,3.3,0,3.9,1.5l52.1,117.5C249,208.2,248.3,210,246.8,210.6z"/>
			</g>
			<path class="st1" d="M182.8,98.5l-94.1,41.8l-31.2,13.8l-41.3,18.3c-5,2.2-7.3,8.1-5.1,13.2l41.6,93.8c2.2,5,8.1,7.3,13.2,5.1
				l94.1-41.8l31.2-13.8l41.3-18.3c5-2.2,7.3-8.1,5.1-13.2L196,103.5C193.7,98.5,187.9,96.2,182.8,98.5z"/>
			<g>
				<g>
					<g>
						<g>
							<path class="st2" d="M105.4,220.7l2.9-1.3c2.1-0.9,3.9-0.6,4.7,1.2c0.8,1.8-0.2,3.4-2.3,4.3l-1.8,0.8l2.1,4.8l-1,0.5
								L105.4,220.7z M110.3,224.1c1.6-0.7,2.2-1.8,1.7-3c-0.6-1.3-1.7-1.4-3.3-0.7l-1.8,0.8l1.6,3.7L110.3,224.1z"/>
							<path class="st2" d="M117.9,227.4l-0.3-1.1c0.2,0,0.5-0.1,0.8-0.2c0.7-0.3,0.9-0.9,1-1.8l0.1-1.6l-7.1-5.2l1.2-0.5l6,4.5
								l0.6-7.4l1.1-0.5l-0.9,10.7c-0.1,1.3-0.4,2.3-1.6,2.8C118.6,227.2,118.2,227.4,117.9,227.4z"/>
							<path class="st2" d="M122.8,213l6.1-2.7l0.4,0.9l-5,2.2l1.6,3.5l2-0.9c2.2-1,4.1-0.7,5,1.3c0.9,1.9-0.2,3.5-2.4,4.5l-3.1,1.4
								L122.8,213z M130,221c1.7-0.8,2.4-1.8,1.8-3.2c-0.6-1.3-1.9-1.6-3.6-0.8l-2,0.9l1.8,4L130,221z"/>
							<path class="st2" d="M134.8,219.9l-0.2-1c0.3,0,0.4-0.1,0.7-0.2c1.7-0.8,1.6-2.9-0.8-8.2l-1-2.2l6.1-2.7l4.5,10.2l-1,0.5
								l-4.1-9.3l-4.1,1.8l0.8,1.8c2.2,5,2.6,7.9,0.2,9C135.6,219.7,135.2,219.8,134.8,219.9z"/>
							<path class="st2" d="M142.4,204.3l6.3-2.8l0.4,0.9l-5.3,2.4l1.6,3.5l5-2.2l0.4,0.9l-5,2.2l1.8,3.9l5.5-2.4l0.4,0.9l-6.5,2.9
								L142.4,204.3z"/>
							<path class="st2" d="M150.9,200.5l1-0.5l3.8,8.6l0,0l1.8-11.1l1.2-0.5l4.5,10.2l-1,0.5l-3.9-8.7l0,0l-1.8,11.2l-1.2,0.5
								L150.9,200.5z M151.5,196.9l0.6-0.4c0.5,0.7,1.3,0.9,2,0.6c0.7-0.3,1.1-1,0.9-1.8l0.7-0.2c0.4,1.2-0.1,2.3-1.3,2.8
								C153.2,198.3,152.1,197.9,151.5,196.9z"/>
						</g>
					</g>
				</g>
			</g>
		</g>
		<g>
			<path class="st2" d="M101.1,209.7l-9.3-21l-2.9,6.2l-5.3-3.4l5.4-10.6l5.6-2.5l12.7,28.5L101.1,209.7z"/>
			<path class="st2" d="M123.9,200.4c-7.3,3.2-13.2-2.6-16.8-10.6c-3.6-8.1-3.9-16.2,3.4-19.4c7.2-3.2,13,2.5,16.6,10.5
				C130.8,189,131.2,197.2,123.9,200.4z M113.1,176.1c-3.2,1.4-1.3,7.3,0.3,10.9c1.6,3.7,4.7,9,8,7.6c3.2-1.4,1.3-7.3-0.4-11
				C119.4,180.1,116.3,174.7,113.1,176.1z"/>
			<path class="st2" d="M148,189.8c-7.3,3.2-13.2-2.6-16.8-10.6c-3.6-8.1-3.8-16.2,3.4-19.4c7.2-3.2,13,2.5,16.6,10.5
				C154.8,178.4,155.2,186.6,148,189.8z M137.2,165.5c-3.2,1.4-1.3,7.3,0.3,10.9c1.6,3.7,4.7,9,8,7.6c3.2-1.4,1.3-7.3-0.4-11
				C143.4,169.4,140.3,164,137.2,165.5z"/>
		</g>
	</g>
	<g>
		<g>
			<g>
				<path class="st0" d="M393.1,564l-276.1-47.4c-2.2-0.4-3.6-2.4-3.3-4.6L143,341.5c0.4-2.2,2.4-3.6,4.6-3.3l276.1,47.4
					c2.2,0.4,3.6,2.4,3.3,4.6l-29.3,170.4C397.3,562.9,395.2,564.4,393.1,564z"/>
			</g>
			<path class="st3" d="M405.1,390.6l-136.6-23.5l-45.2-7.8l-60-10.3c-7.3-1.3-14.2,3.6-15.5,10.9l-23.4,136
				c-1.3,7.3,3.6,14.2,10.9,15.5L272.1,535l45.2,7.8l60,10.3c7.3,1.3,14.2-3.6,15.5-10.9l23.4-136
				C417.3,398.8,412.4,391.9,405.1,390.6z"/>
			<g>
				<g>
					<g>
						<g>
							<path class="st2" d="M227.2,469.7l4.2,0.7c3,0.5,4.8,2.2,4.3,4.8c-0.5,2.7-2.7,3.6-5.7,3.1l-2.6-0.5l-1.2,6.9l-1.5-0.3
								L227.2,469.7z M230.2,477.1c2.3,0.4,3.8-0.3,4.1-2.1c0.3-1.8-0.9-2.9-3.2-3.3l-2.6-0.4l-0.9,5.4L230.2,477.1z"/>
							<path class="st2" d="M236.2,486.6l0.5-1.4c0.3,0.2,0.7,0.3,1,0.4c1,0.2,1.7-0.3,2.5-1.3l1.3-1.7l-4-11.1l1.8,0.3l3.4,9.5
								l6.2-7.8l1.7,0.3l-9,11.3c-1.1,1.4-2.2,2.2-3.9,1.9C237.1,486.9,236.6,486.8,236.2,486.6z"/>
							<path class="st2" d="M252.5,474.1l8.8,1.5l-0.2,1.3l-7.3-1.3l-0.9,5.1l3,0.5c3.2,0.5,5.1,2.3,4.6,5.1s-2.8,3.8-6,3.3
								l-4.5-0.8L252.5,474.1z M254.5,488.4c2.5,0.4,4.1-0.2,4.4-2.2c0.3-1.9-0.9-3.2-3.4-3.6l-2.8-0.5l-1,5.8L254.5,488.4z"/>
							<path class="st2" d="M260.8,490.8l0.5-1.3c0.3,0.2,0.5,0.3,0.9,0.3c2.5,0.4,3.9-2.1,5.2-9.8l0.6-3.2l8.9,1.5l-2.6,14.9
								l-1.5-0.3l2.3-13.5l-5.9-1l-0.5,2.6c-1.2,7.3-3,10.8-6.6,10.2C261.8,491.1,261.2,491,260.8,490.8z"/>
							<path class="st2" d="M280.8,479l9.2,1.6l-0.2,1.3l-7.7-1.3l-0.9,5.1l7.2,1.2l-0.2,1.3L281,487l-1,5.7l7.9,1.4l-0.2,1.3
								l-9.5-1.6L280.8,479z"/>
							<path class="st2" d="M293.3,481.1l1.5,0.3l-2.1,12.5l0,0l10.3-11.1l1.7,0.3l-2.6,14.9l-1.5-0.3l2.2-12.6l0,0l-10.4,11.2
								l-1.7-0.3L293.3,481.1z M296.6,477.4l1,0c0,1.1,0.7,1.9,1.8,2.1s2-0.3,2.4-1.4l0.9,0.4c-0.4,1.6-1.8,2.5-3.5,2.2
								C297.5,480.4,296.5,479.1,296.6,477.4z"/>
						</g>
					</g>
				</g>
			</g>
		</g>
		<g>
			<path class="st2" d="M218.5,452l1.4-8.2l17-12.1c2.2-1.6,3.7-3.3,4.1-5.9c0.5-2.9-1-5.3-3.8-5.8c-2.9-0.5-5.3,1.7-6.3,5.4
				l-8.2-2.7c2.3-8.2,9.2-12.1,16.4-10.9c6.8,1.2,12.7,6.3,11.2,15c-1,5.9-4.7,8.8-8.7,11.6l-10.1,7.1l15.2,2.6l-1.5,8.5L218.5,452z
				"/>
			<path class="st2" d="M265.1,461.2c-10.5-1.8-12.8-12.7-10.8-24.4c2-11.7,7.8-21,18.3-19.2c10.5,1.8,12.8,12.5,10.7,24.2
				C281.3,453.5,275.6,463,265.1,461.2z M271.2,425.9c-4.7-0.8-7,7.2-7.9,12.4c-0.9,5.3-1.4,13.7,3.2,14.5c4.6,0.8,6.9-7.2,7.8-12.6
				C275.2,435,275.8,426.7,271.2,425.9z"/>
			<path class="st2" d="M299.3,467.1c-10.5-1.8-12.8-12.7-10.8-24.4c2-11.7,7.8-21,18.3-19.2c10.5,1.8,12.8,12.5,10.7,24.2
				C315.5,459.4,309.8,468.9,299.3,467.1z M305.4,431.8c-4.7-0.8-7,7.2-7.9,12.4c-0.9,5.3-1.4,13.7,3.2,14.5
				c4.6,0.8,6.9-7.3,7.8-12.6C309.4,440.9,310,432.5,305.4,431.8z"/>
		</g>
	</g>
	<g>
		<g>
			<g>
				<path class="st0" d="M764.9,480.5l-176.8-34.6c-1.4-0.3-2.3-1.6-2-3l21.4-109.1c0.3-1.4,1.6-2.3,3-2l176.8,34.6
					c1.4,0.3,2.3,1.6,2,3l-21.4,109.1C767.6,479.8,766.2,480.7,764.9,480.5z"/>
			</g>
			<path class="st4" d="M775.2,369.2l-87.4-17.1l-28.9-5.7l-38.4-7.5c-4.7-0.9-9.2,2.1-10.1,6.8l-17.1,87.1
				c-0.9,4.7,2.1,9.2,6.8,10.1l87.4,17.1l28.9,5.7l38.4,7.5c4.7,0.9,9.2-2.1,10.1-6.8l17.1-87.1
				C782.9,374.6,779.9,370.1,775.2,369.2z"/>
			<g>
				<g>
					<g>
						<g>
							<path class="st2" d="M659.7,417.4l2.7,0.5c1.9,0.4,3,1.5,2.7,3.2c-0.3,1.7-1.8,2.3-3.7,1.9l-1.7-0.3l-0.9,4.4l-1-0.2
								L659.7,417.4z M661.4,422.2c1.5,0.3,2.4-0.1,2.7-1.3c0.2-1.2-0.5-1.9-2-2.2l-1.6-0.3l-0.7,3.4L661.4,422.2z"/>
							<path class="st2" d="M665.2,428.4l0.3-0.9c0.2,0.1,0.4,0.2,0.7,0.2c0.6,0.1,1.1-0.2,1.6-0.8l0.9-1l-2.4-7.2l1.1,0.2l2,6.1
								l4.1-4.9l1.1,0.2l-6,7.1c-0.7,0.9-1.4,1.4-2.5,1.2C665.8,428.6,665.4,428.5,665.2,428.4z"/>
							<path class="st2" d="M675.9,420.6l5.7,1.1l-0.2,0.9l-4.7-0.9l-0.6,3.3l1.9,0.4c2,0.4,3.2,1.6,2.9,3.4c-0.4,1.8-1.9,2.4-3.9,2
								l-2.9-0.6L675.9,420.6z M676.9,429.8c1.6,0.3,2.6-0.1,2.9-1.3c0.2-1.2-0.5-2.1-2.2-2.4l-1.8-0.4l-0.7,3.7L676.9,429.8z"/>
							<path class="st2" d="M680.9,431.4l0.3-0.8c0.2,0.1,0.3,0.2,0.6,0.2c1.6,0.3,2.6-1.3,3.5-6.2l0.4-2.1l5.7,1.1l-1.9,9.5l-1-0.2
								l1.7-8.7l-3.8-0.7l-0.3,1.7c-0.9,4.6-2.1,6.9-4.4,6.5C681.6,431.7,681.2,431.5,680.9,431.4z"/>
							<path class="st2" d="M694,424.1l5.9,1.2l-0.2,0.9l-4.9-1l-0.6,3.3l4.6,0.9l-0.2,0.8l-4.6-0.9l-0.7,3.7l5.1,1l-0.2,0.9
								l-6.1-1.2L694,424.1z"/>
							<path class="st2" d="M701.9,425.7l1,0.2l-1.6,8l0,0l6.8-7l1.1,0.2l-1.9,9.5l-1-0.2l1.6-8.1l0,0l-6.8,7.1l-1.1-0.2
								L701.9,425.7z M704.2,423.4l0.6,0c0,0.7,0.5,1.2,1.1,1.4c0.7,0.1,1.3-0.2,1.6-0.9l0.6,0.2c-0.3,1-1.2,1.6-2.3,1.3
								C704.7,425.3,704.1,424.4,704.2,423.4z"/>
						</g>
					</g>
				</g>
			</g>
		</g>
		<g>
			<path class="st2" d="M673.1,410.2c-4.3-0.8-7.4-4.1-7.7-8.5l5.5-0.7c0.1,1.9,1.4,3.6,3.2,3.9c1.9,0.4,3.8-0.6,4.3-3.2
				c0.6-3.1-1.8-4.5-4.1-5c-1.7-0.3-4.2-0.3-6,0l3.5-15.1l14.6,2.9l-1.1,5.4l-9.6-1.9l-1,4.2c0.7,0,1.7,0.1,2.4,0.2
				c4.8,0.9,8,4.5,6.9,10.1C682.9,408.9,677.8,411.1,673.1,410.2z"/>
			<path class="st2" d="M695.6,414.6c-6.7-1.3-8.1-8.3-6.6-15.9c1.5-7.5,5.3-13.4,12.1-12.1c6.7,1.3,8,8.2,6.5,15.7
				C706.1,409.9,702.3,415.9,695.6,414.6z M700,392c-3-0.6-4.6,4.5-5.2,7.9c-0.7,3.4-1.1,8.8,1.9,9.3c3,0.6,4.5-4.6,5.2-8
				C702.5,397.9,703,392.5,700,392z"/>
		</g>
	</g>
	<g>
		<g>
			<path class="st5" d="M386.1,292c-0.1,0-0.1,0-0.1-0.1c-0.5-0.7-47.7-68.9-100-129.8c0-0.1-0.1-0.1,0-0.2c0,0,2-4.3,0.6-8.8
				c-0.4-1.3-1.2-2.9-2-4.5c-2.2-4.4-4.8-9.4-1.4-12.3c0.2-0.2,1-0.8,1.3-1c0.8-0.6,1.7-0.9,2.7-0.9c2.9,0,6.1,2.6,9,4.9
				c1.4,1.2,2.8,2.3,4,2.9c2.2,1.2,4.6,1.5,6.1,1.5c1.6,0,2.6-0.3,2.7-0.3c0,0,0,0,0,0c0.1,0,0.1,0,0.1,0.1
				c48.6,63.9,105.4,124.3,106,124.9c0,0,0.1,0.1,0.1,0.1c0,0.1,0,0.1-0.1,0.1c0,0-14.4,11.8-14.4,11.8L386.2,292
				C386.2,292,386.1,292,386.1,292C386.1,292,386.1,292,386.1,292z"/>
			<path class="st2" d="M287,134.6c4.3,0,9.3,5.8,12.9,7.8c2.2,1.2,4.5,1.5,6.2,1.5c1.6,0,2.7-0.3,2.7-0.3
				c49.1,64.7,106,124.9,106,124.9l-14.2,11.6l0,0l-0.1,0.1l-0.1,0.1l0,0l-14.3,11.4c0,0-47.1-68.2-100-129.8c0,0,2.1-4.3,0.6-9
				c-1.4-4.7-8-12.7-3.5-16.6c0.2-0.2,1-0.8,1.2-1C285.2,134.8,286.1,134.6,287,134.6 M287,134.2c-1,0-2,0.3-2.9,1
				c-0.2,0.2-1,0.8-1.3,1c-3.4,3-0.9,8.1,1.4,12.5c0.8,1.6,1.6,3.2,2,4.5c1.4,4.5-0.6,8.7-0.6,8.7c-0.1,0.1,0,0.3,0.1,0.4
				c52.4,60.8,99.6,129.1,100,129.7c0.1,0.1,0.1,0.1,0.3,0.2c0,0,0,0,0.1,0c0.1,0,0.2,0,0.2-0.1l14.3-11.4c0,0,0,0,0,0l0.1-0.1
				l0.1-0.1c0,0,0,0,0,0l14.1-11.6c0.1-0.1,0.1-0.2,0.1-0.3c0-0.1,0-0.2-0.1-0.3c-0.6-0.6-57.4-61-106-124.9
				c-0.1-0.1-0.2-0.1-0.3-0.1c0,0-0.1,0-0.1,0c0,0-1.1,0.3-2.6,0.3c-1.5,0-3.8-0.3-6-1.5c-1.2-0.7-2.5-1.7-4-2.9
				C293.2,136.8,290,134.2,287,134.2L287,134.2z"/>
		</g>
		<g>
			<path class="st6" d="M608.2,544.7c0,0-0.1,0-0.1-0.1l-34.2-33.9l-16.4-3.6c0,0-0.1,0-0.1-0.1L383.5,292.8c0,0,0-0.1,0-0.1
				c0,0,0-0.1,0.1-0.1l32.3-26.1c0,0,0.1,0,0.1,0c0.1,0,0.1,0,0.1,0.1l173.5,213.9c0,0,0,0.1,0,0.1l0.6,17.4l26.7,39.6
				c0.1,0.1,0,0.2,0,0.2l-8.5,6.9C608.3,544.7,608.2,544.7,608.2,544.7z"/>
			<path class="st2" d="M415.9,266.5l173.5,213.9l0.6,17.5l26.7,39.7l-8.5,6.9L574,510.6l-16.5-3.6L383.6,292.6L415.9,266.5
				 M415.9,266.1c-0.1,0-0.2,0-0.2,0.1l-32.3,26.1c-0.1,0.1-0.1,0.2-0.1,0.3s0,0.2,0.1,0.3l173.9,214.3c0.1,0.1,0.1,0.1,0.2,0.1
				l16.4,3.6l34.1,33.8c0.1,0.1,0.2,0.1,0.3,0.1c0.1,0,0.2,0,0.2-0.1l8.5-6.9c0.1-0.1,0.2-0.3,0.1-0.5l-26.7-39.6l-0.6-17.4
				c0-0.1,0-0.2-0.1-0.2L416.2,266.3C416.1,266.2,416,266.1,415.9,266.1L415.9,266.1z"/>
		</g>
		
			<rect x="525.7" y="459.7" transform="matrix(0.7774 -0.629 0.629 0.7774 -167.9498 446.4574)" class="st7" width="42.2" height="1.6"/>
		
			<rect x="550.8" y="490.8" transform="matrix(0.7774 -0.629 0.629 0.7774 -181.8872 469.1685)" class="st7" width="42.2" height="1.6"/>
		<path class="st7" d="M404.8,319.8l1,1.3l32.9-26.6l-1-1.3L404.8,319.8z M404.8,319.8"/>
		<path class="st7" d="M449,340.2c2.1-1.7,4.9-1.7,6.3,0l4.5,5.6c1.4,1.7,0.8,4.4-1.3,6.1c-2.1,1.7-4.9,1.7-6.3,0l-4.5-5.6
			C446.3,344.7,446.9,341.9,449,340.2L449,340.2z M449,340.2"/>
	</g>
	<g>
		<path class="st2" d="M736.1,151c-0.2-1.3-0.9-2.8-4-5.1c-8.8-6.4-25.2-15.8-45.6-26.6l0,0c0,0,0,0,0,0c0,0,0,0,0,0l0,0
			c-20.4-10.7-37.3-18.8-47.6-22.4c-3.6-1.3-5.3-0.9-6.4-0.4c-3.1,1.4-3.9,9.9-6,18.2c-2.7,11-3.9,15.3-4.2,19.5
			c-0.1,1.5,1.2,7.6,7.2,11.5c3.3,2.1,23.9,12.8,33.8,18c9.8,5.2,30.5,16.1,34.1,17.6c6.6,2.8,12.4,0.4,13.5-0.6
			c3.3-2.7,6.1-6,13.7-14.5C730.2,159.8,736.7,154.4,736.1,151z"/>
		<g>
			<path class="st0" d="M703.7,295.4l-10.4-3.5c-1.9-0.6-3.2-2.3-3.3-4.3c-0.2-2.9-0.1-6.9,0.4-11.8c0.5-5.2,1.2-11.1,1.8-16.4
				c0.9-7.6,1.7-14.2,1.5-16.2c-0.4-3.2-1.1-9.1-5-13.2c-2.8-3-3.8-3.4-5.1-4c-0.5-0.2-1-0.4-1.6-0.8c0,0-0.9-0.2-1.2-0.3
				c-1.2-0.3-2.2-0.6-4.4-1.5c-1.9-0.8-4.1-2-5.8-3.1c-0.8-0.5-1.5-0.9-2-1.2l-54.1-28.4c-0.5-0.3-1.3-0.6-2.1-1
				c-1.8-0.8-4-1.9-5.8-3c-2.1-1.3-2.8-2-3.8-2.8c-0.2-0.2-0.9-0.7-0.9-0.7c-0.7-0.3-1.2-0.6-1.6-0.9c-1.2-0.7-2.1-1.3-6.2-1.9
				c-0.7-0.1-1.5-0.2-2.2-0.2c-4.8,0-9,2.2-11.5,3.6c-1.8,0.9-6.7,5.3-12.5,10.4c-4,3.5-8.5,7.5-12.4,10.8c-3.8,3.2-7,5.5-9.5,7
				c-0.8,0.4-1.6,0.7-2.5,0.7c-1.1,0-2.1-0.3-2.9-1l-8.8-6.6c0,0-0.1-0.1,0-0.2c16.6-27.4,73.8-72.4,86.8-75.7
				c0.8-0.2,1.8-0.3,2.9-0.3c12.5,0,39.1,13.5,49.9,19.3c9.7,5,41.8,22.2,45.6,32.7c4.6,12.6,0.1,85.3-13,114.5
				C703.8,295.4,703.8,295.4,703.7,295.4C703.7,295.4,703.7,295.4,703.7,295.4z"/>
			<path class="st2" d="M621.4,129c12.6,0,40,14,49.8,19.3c10.7,5.5,41.8,22.3,45.5,32.6c4.6,12.6,0,85.4-13,114.4l-10.4-3.5
				c-1.8-0.6-3.1-2.2-3.2-4.2c-0.2-2.3-0.2-5.9,0.4-11.8c1.1-12.5,3.7-29.2,3.3-32.6c-0.4-3.4-1.1-9.2-5-13.3
				c-3.9-4.1-4.4-3.4-6.8-4.8c-0.1,0-0.2,0-0.2-0.1c-1.8-0.5-2.5-0.6-5.4-1.8c-2.8-1.2-6.1-3.3-7.8-4.2c-1.1-0.6-14.6-7.7-23.4-12.3
				c0,0-3.1-1.6-7.4-3.9c-8.7-4.6-22.2-11.7-23.4-12.3c-1.7-0.9-5.3-2.3-7.9-4s-3.1-2.2-4.5-3.4c-0.1,0-0.1-0.1-0.2-0.1
				c-2.5-1.2-2.2-2-7.8-2.8c-0.8-0.1-1.5-0.2-2.2-0.2c-4.7,0-8.9,2.2-11.6,3.6c-3,1.6-15.3,13.2-25,21.2c-4.5,3.8-7.6,5.8-9.5,7
				c-0.7,0.4-1.6,0.7-2.4,0.7c-1,0-2-0.3-2.9-1l-8.8-6.6c16.5-27.1,73.8-72.3,86.8-75.7C619.3,129.1,620.3,129,621.4,129
				 M621.4,128.8c-1.1,0-2.1,0.1-2.9,0.3c-13,3.4-70.3,48.4-86.9,75.8c-0.1,0.1,0,0.2,0.1,0.3l8.8,6.6c0.9,0.7,1.9,1,3,1
				c0.9,0,1.8-0.2,2.5-0.7c2.5-1.5,5.7-3.9,9.6-7c4-3.3,8.5-7.3,12.4-10.8c5.8-5.1,10.7-9.5,12.5-10.4c2.5-1.3,6.7-3.6,11.5-3.6
				c0.7,0,1.5,0.1,2.2,0.2c4.1,0.6,5,1.2,6.1,1.9c0.4,0.3,0.9,0.6,1.6,0.9l0,0l0.1,0.1c0.3,0.2,0.5,0.4,0.8,0.6
				c1,0.8,1.7,1.5,3.8,2.8c1.8,1.1,4,2.2,5.8,3c0.8,0.4,1.6,0.7,2.1,1l23.4,12.3l7.4,3.9l14.1,7.4l9.2,4.8c0.5,0.3,1.2,0.7,2,1.2
				c1.7,1,3.8,2.3,5.8,3.1c2.3,0.9,3.2,1.2,4.5,1.5c0.3,0.1,0.6,0.2,1,0.3l0.2,0l0,0c0.6,0.4,1.2,0.6,1.6,0.8c1.3,0.5,2.2,1,5.1,4
				c3.9,4.1,4.6,10,5,13.2c0.2,2-0.6,8.6-1.5,16.2c-0.6,5.3-1.4,11.2-1.8,16.4c-0.4,4.9-0.6,8.9-0.4,11.9c0.1,2,1.5,3.7,3.4,4.4
				l10.4,3.5c0,0,0.1,0,0.1,0c0.1,0,0.2-0.1,0.2-0.1c13.1-29.2,17.7-101.9,13-114.6c-3.8-10.3-33.2-26.3-45.7-32.8
				C660.5,142.3,633.9,128.8,621.4,128.8L621.4,128.8z"/>
		</g>
		<g>
			<g>
				<path class="st2" d="M633.5,173.7c-3.9,7.5-13.2,10.4-20.7,6.5c-7.5-3.9-10.4-13.2-6.5-20.7c3.9-7.5,13.2-10.4,20.7-6.5
					C634.5,156.9,637.4,166.2,633.5,173.7z"/>
			</g>
		</g>
		<g>
			<g>
				<path class="st2" d="M698.9,208.1c-3.9,7.5-13.2,10.4-20.7,6.5c-7.5-3.9-10.4-13.2-6.5-20.7c3.9-7.5,13.2-10.4,20.7-6.5
					S702.9,200.6,698.9,208.1z"/>
			</g>
		</g>
		<g>
			<path class="st2" d="M726.7,145.6c-0.1-1.2-0.6-2.6-3-4.6c-7-5.5-20.3-13.3-37-22l0,0c0,0,0,0,0,0c0,0,0,0,0,0l0,0
				c-16.6-8.7-30.4-15.2-39-17.9c-3-0.9-4.4-0.5-5.5,0.1c-2.8,1.6-4.1,9.8-6.5,17.9c-3.1,10.8-4.5,14.9-5.1,19
				c-0.2,1.5,0.4,7.3,5.3,10.5c2.6,1.8,19.5,10.5,27.5,14.7c8,4.2,24.9,13.1,27.8,14.3c5.4,2.2,10.5-0.6,11.6-1.6
				c3-2.8,5.7-6.2,12.8-15C721,154.5,727,148.8,726.7,145.6z"/>
			<g>
				<path class="st8" d="M694.3,176.9c-1.3,0-2.7-0.2-3.9-0.7c-2.4-1-14.6-7.4-22.7-11.6l-3.8-2l-3.8-2
					c-8.1-4.2-20.3-10.6-22.4-12.1c-4.5-3-5.2-8.7-4.9-10.4c0.5-3.4,1.6-6.8,3.8-14.2l1.4-4.8c0.6-2,1.1-4,1.7-5.9
					c1.6-5.8,2.9-10.7,5-12c0.5-0.3,1.3-0.7,2.6-0.7c0.8,0,1.7,0.2,2.8,0.5c7.8,2.4,20.3,8.1,37.2,16.9c16.8,8.8,29,16.1,35.3,21.1
					c2.4,1.9,2.8,3.4,2.9,4.5c0.1,2.4-3.2,6.4-7.1,10.9c-1.3,1.5-2.6,3.1-3.9,4.7l-3.1,3.9c-4.8,6.1-7,8.8-9.5,11.2
					C700.9,175.2,697.9,176.9,694.3,176.9C694.3,176.9,694.3,176.9,694.3,176.9z"/>
				<path class="st2" d="M647.2,100.7c0.7,0,1.7,0.1,2.8,0.5c8.2,2.5,21.3,8.6,37.2,16.9c0,0,0,0,0,0c0,0,0,0,0,0
					c15.9,8.3,28.5,15.8,35.2,21.1c2.3,1.9,2.8,3.3,2.8,4.5c0.2,3.2-5.7,9-10.9,15.6c-7,8.8-9.6,12.2-12.6,15.1
					c-0.8,0.8-3.8,2.5-7.4,2.5c-1.2,0-2.5-0.2-3.8-0.7c-2.8-1.1-18.9-9.6-26.5-13.6c-7.6-4-23.7-12.4-26.2-14
					c-4.6-3.1-5.1-8.8-4.9-10.3c0.6-4.1,2-8.2,5.2-18.9c2.4-8.1,3.9-16.2,6.6-17.8C645.3,101,646,100.7,647.2,100.7 M647.2,100.4
					c-1.3,0-2.1,0.4-2.6,0.7c-2.1,1.3-3.4,6-5,12.1c-0.5,1.9-1.1,3.9-1.7,5.9c-0.5,1.8-1,3.3-1.4,4.8c-2.2,7.4-3.3,10.8-3.8,14.2
					c-0.3,1.7,0.4,7.4,5,10.5c2.2,1.4,14.3,7.8,22.4,12.1l3.8,2l3.8,2c8.1,4.3,20.3,10.7,22.7,11.6c1.2,0.5,2.6,0.7,3.9,0.7
					c3.6,0,6.7-1.8,7.6-2.6c2.5-2.4,4.7-5.2,9.6-11.2c0.9-1.2,1.9-2.4,3.1-3.9c1.3-1.6,2.6-3.2,3.9-4.7c4-4.8,7.2-8.5,7.1-11
					c-0.1-1.2-0.5-2.7-2.9-4.6c-6.3-5-18.5-12.3-35.2-21.1l-0.2,0.2l0.1-0.2c-16.9-8.9-29.4-14.6-37.2-16.9
					C648.9,100.6,648,100.4,647.2,100.4L647.2,100.4z"/>
			</g>
		</g>
		<g>
			<g>
				<path class="st0" d="M760.4,167.7C760.3,167.7,760.3,167.7,760.4,167.7l-25.3-19.9c0,0,0,0,0-0.1c0,0,0-0.1,0-0.1l2.6-3.3
					c0,0,0,0,0.1-0.1c0.1-0.1,0.3-0.2,0.5-0.2h0c0.5,0,9.2,3,15.2,8.1c5.5,4.6,7.7,9.2,8.3,10.6c0.1,0.3,0.1,0.5,0.1,0.6l-1.4,4.4
					C760.5,167.7,760.4,167.7,760.4,167.7C760.4,167.7,760.4,167.7,760.4,167.7z"/>
				<path class="st2" d="M738.4,144.1c0.5,0,9.1,3,15.1,8.1c6.1,5.1,8.1,10.3,8.3,10.6c0.1,0.2,0.1,0.4,0,0.5c0,0,0,0.1,0,0.1
					l-1.4,4.3l-25.2-19.9l2.6-3.3c0,0,0,0,0.1-0.1C738,144.3,738.1,144.2,738.4,144.1C738.4,144.1,738.4,144.1,738.4,144.1
					 M738.4,143.9C738.4,143.9,738.3,143.9,738.4,143.9c-0.3,0-0.5,0.1-0.6,0.2c-0.1,0.1-0.1,0.1-0.1,0.1l-2.6,3.3
					c0,0-0.1,0.1,0,0.2c0,0.1,0,0.1,0.1,0.2l25.2,19.9c0,0,0.1,0.1,0.1,0.1c0,0,0,0,0.1,0c0.1,0,0.1-0.1,0.2-0.2l1.4-4.3
					c0,0,0,0,0-0.1c0-0.1,0.1-0.3,0-0.6c-0.6-1.4-2.8-6-8.3-10.6C747.6,146.9,738.9,143.9,738.4,143.9L738.4,143.9z"/>
			</g>
		</g>
		<g>
			<path class="st8" d="M708.8,296.8c-1.9,0-3.7-0.5-5.1-1.3c-2.2-1.4-1.8-6.8-1.1-11.1c0.1-0.8,0.3-1.9,0.6-3.3
				c1.4-7.7,4.2-23.8,5.1-37.5c1-15.6,0.2-32-0.5-38.7c-0.4-3.6-1.4-8-2.4-11.8c-0.6-2.3-1.1-4.4-1.3-5.8c-0.6-3.9-0.9-6.1,0-9.3
				c0.9-3.4,3.1-6.5,4.2-7.9c0.9-1.3,3.7-4.6,5.6-6.8c0.6-0.7,1.1-1.3,1.4-1.7c0.3-0.3,0.8-0.9,1.4-1.7c2.4-3,7-8.6,9.1-10.8
				c2.1-2.1,4.5-2.6,6.3-2.6c0.8,0,1.5,0.1,1.9,0.2c1.6,0.4,6.1,3.5,14.6,10.1c6.8,5.3,14.8,12.3,14.9,12.9c0.1,0.3,0.1,0.5,0,0.9
				c0,0.2,0,0.4,0,0.8c0,0.3-1.3,30-8,55.3c-6.3,23.9-22.4,56.9-34.6,65.4C716.5,295.2,712.4,296.8,708.8,296.8
				C708.8,296.8,708.8,296.8,708.8,296.8z"/>
			<path class="st2" d="M732,146.7c0.7,0,1.4,0.1,1.9,0.2c1.8,0.4,7.5,4.5,14.6,10.1c7.1,5.5,14.8,12.3,14.9,12.8
				c0.1,0.5,0,0.6,0,1.6c0,1-1.4,30.3-8,55.3c-6.6,25-22.7,57.1-34.5,65.4c-5.2,3.6-9.2,4.6-12,4.6c-2.8,0-4.4-0.9-5-1.3
				c-2.1-1.3-1.8-6.5-1.1-10.9c0.8-4.8,4.6-24.5,5.7-40.8c1-16.3,0.1-32.8-0.5-38.7c-0.6-5.9-3.1-13.9-3.7-17.6
				c-0.6-3.7-0.9-6,0-9.2c0.9-3.2,2.9-6.2,4.2-7.9c1.2-1.8,5.7-6.9,7-8.5c1.3-1.6,7.8-9.7,10.5-12.5
				C727.8,147.2,730.1,146.7,732,146.7 M732,146.4c-1.7,0-4.3,0.5-6.3,2.6c-2.1,2.2-6.7,7.8-9.1,10.8c-0.6,0.8-1.1,1.4-1.4,1.7
				c-0.3,0.4-0.8,1-1.4,1.7c-1.9,2.2-4.6,5.5-5.6,6.8c-1.1,1.5-3.3,4.6-4.2,8c-0.9,3.2-0.6,5.5,0,9.3c0.2,1.4,0.7,3.5,1.3,5.8
				c0.9,3.8,2,8.2,2.4,11.8c0.7,6.7,1.5,23.1,0.5,38.7c-0.9,13.7-3.7,29.8-5.1,37.5c-0.3,1.4-0.5,2.6-0.6,3.3
				c-0.7,4.3-1.1,9.8,1.2,11.2c1.4,0.9,3.2,1.3,5.1,1.3c3.6,0,7.7-1.6,12.2-4.7c12.2-8.5,28.3-41.6,34.6-65.5
				c6.7-25.4,8-55.1,8-55.4c0-0.3,0-0.6,0-0.8c0-0.4,0-0.6,0-0.9c-0.1-0.7-8.5-7.9-15-12.9c-8.5-6.6-13-9.7-14.7-10.1
				C733.5,146.6,732.9,146.4,732,146.4L732,146.4z"/>
		</g>
		<g>
			<g>
				<path class="st2" d="M746.2,177.9c-2,3.9-6.9,5.4-10.8,3.4c-3.9-2-5.4-6.9-3.4-10.8c2-3.9,6.9-5.4,10.8-3.4
					C746.7,169.2,748.2,174,746.2,177.9z"/>
			</g>
			<g>
				<path class="st2" d="M753.1,200.5c-2,3.9-6.9,5.4-10.8,3.3s-5.4-6.9-3.4-10.8c2-3.9,6.9-5.4,10.8-3.4
					C753.6,191.8,755.1,196.6,753.1,200.5z"/>
			</g>
			<g>
				<path class="st2" d="M730.4,208c-2,3.9-6.9,5.4-10.8,3.4c-3.9-2-5.4-6.9-3.4-10.8c2-3.9,6.9-5.4,10.8-3.4
					C730.9,199.3,732.4,204.1,730.4,208z"/>
			</g>
			<g>
				<path class="st2" d="M723.3,184.9c-2,3.9-6.9,5.4-10.8,3.3c-3.9-2-5.4-6.9-3.4-10.8c2-3.9,6.9-5.4,10.8-3.4
					C723.8,176.2,725.3,181,723.3,184.9z"/>
			</g>
		</g>
		<g>
			<g>
				<path class="st0" d="M635.6,95.6l-30.7-9.4c0,0-0.1,0-0.1-0.1c0,0,0-0.1,0-0.1l2.8-3.6c0.1-0.1,0.3-0.3,0.5-0.3
					c1.3-0.3,3-0.4,4.6-0.4c2.9,0,5.8,0.4,8.8,1.2c7.7,2.1,15.1,7.6,15.3,8c0.1,0.2,0.1,0.4,0.1,0.6c0,0.1,0,0.1,0,0.1l-1.2,4
					C635.7,95.5,635.7,95.5,635.6,95.6C635.7,95.6,635.6,95.6,635.6,95.6C635.6,95.6,635.6,95.6,635.6,95.6z"/>
				<path class="st2" d="M612.8,81.7c2.3,0,5.3,0.3,8.8,1.2c7.7,2.1,15.1,7.6,15.2,7.9c0.1,0.2,0.1,0.4,0.1,0.5c0,0.1,0,0.1,0,0.1
					l-1.2,4L605,86l2.8-3.6c0,0,0,0,0,0c0.1-0.1,0.2-0.2,0.4-0.2C608.3,82.1,610,81.7,612.8,81.7 M612.8,81.4
					c-1.7,0-3.3,0.1-4.6,0.4c-0.3,0.1-0.5,0.2-0.6,0.3c0,0-0.1,0.1-0.1,0.1l-2.7,3.6c0,0.1-0.1,0.1,0,0.2s0.1,0.1,0.2,0.2l30.7,9.4
					c0,0,0,0,0.1,0c0,0,0.1,0,0.1,0c0.1,0,0.1-0.1,0.1-0.1l1.2-4c0,0,0-0.1,0-0.2c0-0.1,0-0.4-0.1-0.6c-0.2-0.4-7.7-5.9-15.4-8
					C618.6,81.9,615.6,81.4,612.8,81.4L612.8,81.4z"/>
			</g>
		</g>
		<g>
			<path class="st8" d="M532.8,205.4c-0.4,0-0.7-0.1-1-0.2c-2.1-0.9-7.1-4.3-7-16c0.1-14.9,18.1-46.9,34.2-65.6
				c17.1-19.9,40.8-37.8,41-38c0.3-0.2,0.5-0.3,0.6-0.5c0.3-0.2,0.5-0.3,0.8-0.5c0,0,0.1,0,0.1,0c1.1,0,10.7,2.4,18.9,5
				c10.3,3.2,15.4,5.2,16.6,6.3c1.7,1.6,3.4,4.6,2.7,8.1c-0.6,3-2.6,9.9-3.7,13.7c-0.3,1-0.5,1.7-0.6,2.1c-0.1,0.5-0.3,1.2-0.6,2.1
				c-0.7,2.8-1.9,7-2.4,8.5c-0.6,1.7-1.9,5.3-4.2,7.9c-2.1,2.5-4.1,3.5-7.7,5.2c-1.3,0.6-3.3,1.4-5.5,2.2c-3.7,1.4-7.8,3-11.1,4.7
				c-5.9,3.2-19.8,11.8-32.1,21.5c-10.8,8.5-22.4,20-28,25.5c-1,1-1.8,1.8-2.4,2.3C539,202.4,535.3,205.4,532.8,205.4z"/>
			<path class="st2" d="M601.6,84.7c1.1,0,10.6,2.4,18.9,5c8.6,2.7,15.2,5,16.5,6.3c1.4,1.3,3.4,4.2,2.7,8
				c-0.7,3.8-3.8,13.8-4.3,15.7c-0.5,2-2.3,8.6-3,10.6c-0.7,2-2,5.3-4.2,7.9c-2.1,2.6-4.2,3.6-7.6,5.2c-3.4,1.6-11.4,4.2-16.6,7
				c-5.2,2.8-19.4,11.4-32.2,21.5c-12.8,10.1-26.9,24.5-30.4,27.8c-2.9,2.7-6.4,5.5-8.7,5.5c-0.3,0-0.6-0.1-0.9-0.2
				c-1.3-0.6-7-3.4-7-15.9c0.1-14.4,17.3-45.9,34.2-65.5c16.9-19.6,40.2-37.4,41-38C601,85,601.1,84.9,601.6,84.7
				C601.5,84.7,601.6,84.7,601.6,84.7 M601.6,84.5c-0.1,0-0.1,0-0.2,0c-0.3,0.1-0.5,0.3-0.8,0.5c-0.1,0.1-0.3,0.3-0.6,0.4
				c-0.2,0.2-23.9,18.1-41,38c-16.1,18.7-34.2,50.8-34.3,65.7c-0.1,11.8,4.9,15.2,7.1,16.1c0.3,0.1,0.6,0.2,1,0.2
				c2.5,0,6.2-3,8.8-5.6c0.6-0.5,1.4-1.3,2.4-2.3c5.6-5.5,17.2-17,28-25.5c12.3-9.7,26.2-18.3,32.1-21.5c3.2-1.7,7.4-3.3,11-4.7
				c2.3-0.9,4.2-1.6,5.5-2.2c3.6-1.7,5.6-2.7,7.7-5.3c2.3-2.7,3.6-6.3,4.2-8c0.6-1.5,1.7-5.7,2.4-8.5c0.2-0.9,0.4-1.6,0.6-2.1
				c0.1-0.4,0.3-1.1,0.6-2.1c1.1-3.7,3.1-10.6,3.7-13.7c0.7-3.5-1-6.5-2.7-8.2c-1.2-1.1-6.4-3.1-16.6-6.3
				C612.4,86.9,602.7,84.5,601.6,84.5L601.6,84.5z"/>
		</g>
		<g>
			<g>
				<path class="st2" d="M612.6,105.4c0,0-0.2-0.1-0.2-0.1c-4.6-2.4-6.2-2.3-8.4,3.1c-0.5,1.1-1,2.3-1.3,3.3
					c-0.2,0.7,0.3,2.6,0.6,3.7c0.5,2.1,0.9,3.4,1.7,3.9c0,0,0.3,0.1,0.3,0.2c0.9,0.5,2.2,0,4.2-0.8c1-0.4,2.9-1,3.3-1.6
					c0.6-0.8,1.3-1.9,1.9-2.9C618,109.2,617.2,107.8,612.6,105.4z"/>
			</g>
			<g>
				<path class="st2" d="M594.8,138.8c0,0,0.2,0.1,0.2,0.1c4.6,2.4,6.2,2.3,8.4-3.1c0.5-1.1,1-2.3,1.3-3.3c0.2-0.7-0.3-2.6-0.6-3.7
					c-0.5-2.1-0.9-3.4-1.7-3.9c0,0-0.3-0.1-0.3-0.2c-0.9-0.5-2.2,0-4.2,0.8c-1,0.4-2.9,1-3.3,1.6c-0.6,0.8-1.3,1.9-1.9,2.9
					C589.4,135,590.3,136.4,594.8,138.8z"/>
			</g>
			<g>
				<path class="st2" d="M620.5,131.1c0,0,0.1-0.2,0.1-0.2c2.4-4.6,2.3-6.2-3.1-8.4c-1.1-0.5-2.3-1-3.3-1.3
					c-0.7-0.2-2.6,0.3-3.7,0.6c-2.1,0.5-3.4,0.9-3.9,1.7c0,0-0.1,0.3-0.2,0.3c-0.5,0.9,0,2.2,0.8,4.2c0.4,1,1,2.9,1.6,3.3
					c0.8,0.6,1.9,1.3,2.9,1.9C616.7,136.5,618.1,135.6,620.5,131.1z"/>
			</g>
			<g>
				<path class="st2" d="M586.9,113.2c0,0-0.1,0.2-0.1,0.2c-2.4,4.6-2.3,6.2,3.1,8.4c1.1,0.5,2.3,1,3.3,1.3c0.7,0.2,2.6-0.3,3.7-0.6
					c2.1-0.5,3.4-0.9,3.9-1.7c0,0,0.1-0.3,0.2-0.3c0.5-0.9,0-2.2-0.8-4.2c-0.4-1-1-2.9-1.6-3.3c-0.8-0.6-1.9-1.3-2.9-1.9
					C590.6,107.8,589.3,108.6,586.9,113.2z"/>
			</g>
		</g>
	</g>
	<g>
		<path class="st2" d="M999.8,576.9l-5-20.4L791.6,556l-5.7,20.1c-0.1,0.2-0.1,0.4-0.2,0.5l0,0.1h0c0,0.1,0,0.2,0,0.3
			c0,7.2,31,14.8,107.1,14.8c75.9,0,107.1-7.6,107.1-14.8C999.8,577,999.8,577,999.8,576.9z"/>
		<g>
			<ellipse class="st0" cx="893.2" cy="556" rx="101.6" ry="13.8"/>
			<path class="st2" d="M893.2,542.3c56.1,0,101.6,6.1,101.6,13.7s-45.5,13.7-101.6,13.7c-56.1,0-101.6-6.1-101.6-13.7
				S837.1,542.3,893.2,542.3 M893.2,542.2c-27.1,0-52.7,1.4-71.8,4c-19.2,2.6-29.8,6.1-29.8,9.8s10.6,7.2,29.8,9.8
				c19.2,2.6,44.7,4,71.8,4s52.7-1.4,71.8-4c19.2-2.6,29.8-6.1,29.8-9.8s-10.6-7.2-29.8-9.8C945.8,543.7,920.3,542.2,893.2,542.2
				L893.2,542.2z"/>
		</g>
		<g>
			<g>
				<path class="st0" d="M882.3,250c-0.1,0-0.3-0.1-0.3-0.2c-17.3-37.6-38.4-87.5-40.7-111.8C837.4,97.1,828.2,2.7,828.1,1.8
					c0-0.2,0.1-0.4,0.3-0.4c0,0,0,0,0.1,0c0.2,0,0.3,0.1,0.3,0.3c0,0.2,4.9,15.2,15.3,24.2c9.2,8,39.7,9,48.8,9.2
					c6.5-0.1,39.2-1,48.8-9.2c10.4-9,15.3-24.1,15.3-24.2c0-0.2,0.2-0.3,0.3-0.3c0,0,0,0,0.1,0c0.2,0,0.3,0.2,0.3,0.4
					c-0.1,0.9-9.3,95.4-13.2,136.2c-2.3,24.3-23.4,74.2-40.7,111.8c-0.1,0.1-0.2,0.2-0.3,0.2H882.3z"/>
				<path class="st2" d="M957.5,1.8L957.5,1.8 M957.5,1.8c0,0-9.3,94.9-13.2,136.2c-2.3,24.3-23.5,74.4-40.7,111.7h-21.3
					c-17.1-37.2-38.4-87.4-40.7-111.7C837.7,96.6,828.5,1.8,828.5,1.8s4.8,15.2,15.5,24.4c9.8,8.5,43.4,9.2,49.1,9.3
					c5.6-0.1,39.2-0.8,49-9.3C952.7,17,957.5,1.8,957.5,1.8 M828.5,1c0,0-0.1,0-0.1,0c-0.4,0.1-0.6,0.4-0.6,0.8
					c0.1,0.9,9.3,95.4,13.2,136.2c2.3,24.3,23.4,74.3,40.7,111.9c0.1,0.3,0.4,0.4,0.7,0.4h21.3c0.3,0,0.5-0.2,0.7-0.4
					c17.3-37.6,38.4-87.6,40.7-111.9c3.8-40.5,12.9-133.3,13.2-136.2c0,0,0-0.1,0-0.1c0-0.4-0.3-0.7-0.7-0.7c0,0,0,0,0,0
					c0,0-0.1,0-0.1,0c-0.2,0-0.3,0.1-0.4,0.2c0,0-0.1,0.1-0.1,0.1c0,0,0,0,0,0c0,0,0,0,0,0c0,0.1-0.1,0.1-0.1,0.2
					c-0.2,0.5-5,15.2-15.2,24c-9.5,8.2-42.1,9-48.6,9.1c-9.1-0.1-39.4-1.2-48.6-9.1C834,16.6,829.2,1.7,829.2,1.5
					C829.1,1.2,828.8,1,828.5,1L828.5,1z M957.5,2.5L957.5,2.5L957.5,2.5L957.5,2.5z"/>
			</g>
			<path class="st2" d="M948.8,45.6c-0.3-4.6-1.2-6.3-2.5-7.5c-1.2-1.1-4.2-1.5-8.1-2.6c-4.9-1.3-7.5-3.2-7.5-3.2
				c0.9,4.5,0.5,37.7,0.1,56.3h-75.7c-0.3-18.6-0.8-51.8,0.1-56.3c0,0-2.6,1.9-7.5,3.2c-3.9,1.1-6.9,1.5-8.1,2.6
				c-1.2,1.1-2.1,2.9-2.5,7.5c-0.6,9.2-0.5,16.7,0.2,24.1c0.6,5.8,1.5,18.1,2.3,27.9v64.7h5.7v402h95.4v-402h5.4V98
				c0.8-9.8,1.7-22.4,2.3-28.2C949.4,62.3,949.5,54.9,948.8,45.6z"/>
			<g>
				<g>
					<path class="st8" d="M867.8,482.4c-0.8-39.7-7.8-136.1-8.2-144.9c-1.2-33-12-149.8-17.7-214.9c-2.8-32.1-11.7-116.9-13-120
						c-1.2-2.9-2.5-2.6-3.1-2.6c-0.5,0-0.9,0-1.2,0.3c0.3,0.8,0.6,1.7,0.8,2.7c1.7,5.9,10.5,88.1,13.4,120.2
						c5.8,65.1,16.5,181.9,17.7,214.9c0.3,8.8,7.4,105.2,8.2,144.9c0.4,18.4,3.1,79.4,3.1,92c0,2.2,0.4,4.9-1.9,6.3
						c-0.9,0.5-1.9,0.7-3.2,0.6c2.1,0.6,3.6,0.4,5.4-1c2.5-1.9,2.4-4.2,2.5-6.5C871,561.8,868.1,500.7,867.8,482.4z"/>
				</g>
				<path class="st8" d="M865.9,581.2c2.3-1.4,1.9-4.1,1.9-6.3c0-12.6-2.7-73.6-3.1-92c-0.8-39.7-7.8-136.1-8.2-144.9
					c-1.2-33-12-149.8-17.7-214.9C835.9,91,827,8.9,825.4,2.9c-0.3-0.9-0.5-1.8-0.8-2.7c-0.1,0.1-0.1,0.1-0.2,0.2
					c-0.2,0.4,11.1,102.1,12.3,129.9c1.3,28.7,4.3,78.2,5.6,149.4c1,56.8-0.1,145.1-3.7,200c-2.2,33.6-4.6,66.7-4.6,66.7
					s-0.4,10.9,3.3,17.1c3,5,7.8,10,16.2,14c4.3,2.1,7,3.6,9.2,4.3C864,582,865,581.7,865.9,581.2z"/>
			</g>
			<g>
				<path class="st8" d="M918.3,482.4c0.8-39.7,7.8-136.1,8.2-144.9c1.2-33,12-149.8,17.7-214.9c2.8-32.1,11.7-116.9,13-120
					c1.2-2.9,2.5-2.6,3.1-2.6c0.5,0,0.9,0,1.2,0.3c-0.3,0.8-0.6,1.7-0.8,2.7C959,8.9,950.1,91,947.3,123.2
					c-5.8,65.1-16.5,181.9-17.7,214.9c-0.3,8.8-7.4,105.2-8.2,144.9c-0.4,18.4-3.1,79.4-3.1,92c0,2.2-0.4,4.9,1.9,6.3
					c0.9,0.5,1.9,0.7,3.2,0.6c-2.1,0.6-3.6,0.4-5.4-1c-2.5-1.9-2.4-4.2-2.5-6.5C915,561.8,917.9,500.7,918.3,482.4z"/>
				<path class="st8" d="M920.2,581.2c-2.3-1.4-1.9-4.1-1.9-6.3c0-12.6,2.7-73.6,3.1-92c0.8-39.7,7.8-136.1,8.2-144.9
					c1.2-33,12-149.8,17.7-214.9C950.1,91,959,8.9,960.7,2.9c0.3-0.9,0.5-1.8,0.8-2.7c0.1,0.1,0.1,0.1,0.2,0.2
					c0.2,0.4-11.1,102.1-12.3,129.9c-1.3,28.7-4.3,78.2-5.6,149.4c-1,56.8,0.1,145.1,3.7,200c2.2,33.6,4.6,66.7,4.6,66.7
					s0.4,10.9-3.3,17.1c-3,5-7.8,10-16.2,14c-4.3,2.1-7,3.6-9.2,4.3C922,582,921,581.7,920.2,581.2z"/>
			</g>
			<path class="st9" d="M935.3,32.3c-0.6-7.7-1.9-10.9-1.9-10.9h-26.8h-27.2h-26.8c0,0-1.3,3.2-1.9,10.9c-0.6,8.9-0.4,23.8,1.4,45.4
				c3.3,41.1,9.8,163.8,16.1,293.2c3.9,80.4,6.4,193.4,6.4,193.4h4.8h27.2h4.8c0,0,2.5-113,6.4-193.4
				c6.3-129.4,12.8-252.1,16.1-293.2C935.8,56.2,936,41.3,935.3,32.3z"/>
			<g>
				<path class="st0" d="M874.7,564.7c-0.2,0-0.3-0.1-0.3-0.2c-0.1-0.1,0-0.3,0.1-0.4c0,0,1.4-1.1,1.3-2.2
					c-0.4-19-2.8-117.6-6.3-190.9c-7.1-146.5-13.1-256.1-16.1-293.2c-1.8-21.3-2.4-36.8-1.7-45.9c0.5-7.6,0.6-10.4,0.7-10.4
					c0-0.2,0.2-0.4,0.4-0.4h80.8c0.2,0,0.4,0.2,0.4,0.4c0,0,0.1,2.8,0.7,10.4c0.7,9.2,0.1,24.6-1.7,45.9c-3,37.1-9,146.7-16.1,293.2
					c-3.5,73.3-5.9,171.9-6.3,190.9c0,1.1,1.3,2.2,1.3,2.2c0.1,0.1,0.2,0.3,0.1,0.4c0,0.1-0.2,0.2-0.3,0.2H874.7z"/>
				<path class="st2" d="M933.5,21.4c0,0,0.1,2.7,0.7,10.4c0.6,8.9,0.1,24.3-1.7,45.9c-3.3,41.1-9.8,163.8-16.1,293.2
					c-3.6,74.1-6,175.2-6.3,190.9c0,1.3,1.5,2.5,1.5,2.5h-3.3h-30.3h-3.3c0,0,1.5-1.2,1.5-2.5c-0.4-15.7-2.7-116.8-6.3-190.9
					c-6.3-129.4-12.8-252.1-16.1-293.2c-1.8-21.5-2.4-36.9-1.7-45.9c0.6-7.7,0.7-10.4,0.7-10.4h25.3h30.3H933.5 M933.5,20.7h-25.3
					h-30.3h-25.3c-0.4,0-0.7,0.3-0.7,0.7c0,0-0.1,2.8-0.6,10.4c-0.7,9.2-0.1,24.6,1.7,46c3,37.1,9,146.7,16.1,293.2
					c3.5,73.3,5.9,171.9,6.3,190.9c0,0.8-0.9,1.6-1.2,1.9c-0.2,0.2-0.3,0.5-0.2,0.8c0.1,0.3,0.4,0.5,0.7,0.5h3.3h30.3h3.3
					c0.3,0,0.6-0.2,0.7-0.5c0.1-0.3,0-0.6-0.2-0.8c-0.3-0.3-1.2-1.1-1.2-1.9c0.4-19,2.8-117.6,6.3-190.9
					c7.1-146.5,13.1-256.1,16.1-293.2c1.8-21.3,2.4-36.8,1.7-46c-0.5-7.6-0.6-10.4-0.6-10.4C934.2,21,933.9,20.7,933.5,20.7
					L933.5,20.7z"/>
			</g>
		</g>
	</g>
	
		<linearGradient id="SVGID_1_" gradientUnits="userSpaceOnUse" x1="1472.0602" y1="175.1606" x2="1727.5455" y2="748.6436" gradientTransform="matrix(-0.999 4.381841e-02 -4.381841e-02 -0.999 2047.353 525.6584)">
		<stop  offset="0" style="stop-color:#BB9A66"/>
		<stop  offset="2.797789e-02" style="stop-color:#C7A871"/>
		<stop  offset="0.115" style="stop-color:#E7D18F"/>
		<stop  offset="0.16" style="stop-color:#F4E09A"/>
		<stop  offset="0.1993" style="stop-color:#E0C787"/>
		<stop  offset="0.2488" style="stop-color:#CCAE75"/>
		<stop  offset="0.2941" style="stop-color:#BF9F6A"/>
		<stop  offset="0.331" style="stop-color:#BB9A66"/>
		<stop  offset="0.7004" style="stop-color:#F6DD8A"/>
		<stop  offset="0.8297" style="stop-color:#D0B273"/>
		<stop  offset="0.917" style="stop-color:#BB9A66"/>
		<stop  offset="0.9825" style="stop-color:#A68050"/>
	</linearGradient>
	<polygon class="st10" points="465.9,196.7 469.7,212 458,201.5 446.6,212.5 449.9,197 434.7,192.7 449.7,187.8 445.8,172.5 
		457.6,183 468.9,172 465.7,187.4 480.9,191.7 	"/>
	
		<linearGradient id="SVGID_2_" gradientUnits="userSpaceOnUse" x1="1533.0742" y1="238.68" x2="1777.9025" y2="788.2411" gradientTransform="matrix(-0.9976 6.936678e-02 -6.936678e-02 -0.9976 2045.6105 502.8442)">
		<stop  offset="0" style="stop-color:#BB9A66"/>
		<stop  offset="2.797789e-02" style="stop-color:#C7A871"/>
		<stop  offset="0.115" style="stop-color:#E7D18F"/>
		<stop  offset="0.16" style="stop-color:#F4E09A"/>
		<stop  offset="0.1993" style="stop-color:#E0C787"/>
		<stop  offset="0.2488" style="stop-color:#CCAE75"/>
		<stop  offset="0.2941" style="stop-color:#BF9F6A"/>
		<stop  offset="0.331" style="stop-color:#BB9A66"/>
		<stop  offset="0.7004" style="stop-color:#F6DD8A"/>
		<stop  offset="0.8297" style="stop-color:#D0B273"/>
		<stop  offset="0.917" style="stop-color:#BB9A66"/>
		<stop  offset="0.9825" style="stop-color:#A68050"/>
	</linearGradient>
	<polygon class="st11" points="392.5,162.9 394.9,171.7 388,165.8 381.5,172.3 383.2,163.3 374.3,161 382.9,157.9 380.5,149.1 
		387.4,155 393.9,148.5 392.2,157.5 401.1,159.8 	"/>
	
		<linearGradient id="SVGID_3_" gradientUnits="userSpaceOnUse" x1="1735.8422" y1="175.149" x2="1935.1565" y2="622.5461" gradientTransform="matrix(-1 0 0 -1 2049.7822 562.8883)">
		<stop  offset="0" style="stop-color:#BB9A66"/>
		<stop  offset="2.797789e-02" style="stop-color:#C7A871"/>
		<stop  offset="0.115" style="stop-color:#E7D18F"/>
		<stop  offset="0.16" style="stop-color:#F4E09A"/>
		<stop  offset="0.1993" style="stop-color:#E0C787"/>
		<stop  offset="0.2488" style="stop-color:#CCAE75"/>
		<stop  offset="0.2941" style="stop-color:#BF9F6A"/>
		<stop  offset="0.331" style="stop-color:#BB9A66"/>
		<stop  offset="0.7004" style="stop-color:#F6DD8A"/>
		<stop  offset="0.8297" style="stop-color:#D0B273"/>
		<stop  offset="0.917" style="stop-color:#BB9A66"/>
		<stop  offset="0.9825" style="stop-color:#A68050"/>
	</linearGradient>
	<path class="st12" d="M234.9,279.3c15.8,2.6,28.1,15,30.7,30.8c2.6-15.8,15-28.1,30.8-30.7c-15.8-2.6-28.1-15-30.7-30.8
		C263,264.3,250.7,276.7,234.9,279.3z"/>
	
		<linearGradient id="SVGID_4_" gradientUnits="userSpaceOnUse" x1="1539.7682" y1="352.4034" x2="1773.127" y2="876.2194" gradientTransform="matrix(-1 0 0 -1 2049.7822 562.8883)">
		<stop  offset="0" style="stop-color:#BB9A66"/>
		<stop  offset="2.797789e-02" style="stop-color:#C7A871"/>
		<stop  offset="0.115" style="stop-color:#E7D18F"/>
		<stop  offset="0.16" style="stop-color:#F4E09A"/>
		<stop  offset="0.1993" style="stop-color:#E0C787"/>
		<stop  offset="0.2488" style="stop-color:#CCAE75"/>
		<stop  offset="0.2941" style="stop-color:#BF9F6A"/>
		<stop  offset="0.331" style="stop-color:#BB9A66"/>
		<stop  offset="0.7004" style="stop-color:#F6DD8A"/>
		<stop  offset="0.8297" style="stop-color:#D0B273"/>
		<stop  offset="0.917" style="stop-color:#BB9A66"/>
		<stop  offset="0.9825" style="stop-color:#A68050"/>
	</linearGradient>
	<path class="st13" d="M417.4,83.5c18.5,3.1,33,17.6,36,36c3.1-18.5,17.6-33,36-36c-18.5-3.1-33-17.6-36-36
		C450.4,66,435.9,80.5,417.4,83.5z"/>
	
		<linearGradient id="SVGID_5_" gradientUnits="userSpaceOnUse" x1="1505.2727" y1="182.2981" x2="1650.3041" y2="507.8472" gradientTransform="matrix(-1 0 0 -1 2049.7822 562.8883)">
		<stop  offset="0" style="stop-color:#BB9A66"/>
		<stop  offset="2.797789e-02" style="stop-color:#C7A871"/>
		<stop  offset="0.115" style="stop-color:#E7D18F"/>
		<stop  offset="0.16" style="stop-color:#F4E09A"/>
		<stop  offset="0.1993" style="stop-color:#E0C787"/>
		<stop  offset="0.2488" style="stop-color:#CCAE75"/>
		<stop  offset="0.2941" style="stop-color:#BF9F6A"/>
		<stop  offset="0.331" style="stop-color:#BB9A66"/>
		<stop  offset="0.7004" style="stop-color:#F6DD8A"/>
		<stop  offset="0.8297" style="stop-color:#D0B273"/>
		<stop  offset="0.917" style="stop-color:#BB9A66"/>
		<stop  offset="0.9825" style="stop-color:#A68050"/>
	</linearGradient>
	<path class="st14" d="M487,301.7c11.5,1.9,20.5,10.9,22.4,22.4c1.9-11.5,10.9-20.5,22.4-22.4c-11.5-1.9-20.5-10.9-22.4-22.4
		C507.5,290.8,498.5,299.8,487,301.7z"/>
</g>
</svg>
