<?xml version="1.0" encoding="utf-8"?>
<!-- Generator: Adobe Illustrator 25.2.3, SVG Export Plug-In . SVG Version: 6.00 Build 0)  -->
<svg version="1.1" id="Layer_1" xmlns="http://www.w3.org/2000/svg" xmlns:xlink="http://www.w3.org/1999/xlink" x="0px" y="0px"
	 viewBox="0 0 14.6 24" style="enable-background:new 0 0 14.6 24;" xml:space="preserve">
<style type="text/css">
	.st0{fill:#FFDFA6;}
</style>
<path class="st0" d="M14.6,12c0-0.2-0.1-0.4-0.3-0.6L2.7,0.2C2.5,0.1,2.3,0,2.1,0C1.9,0,1.7,0.1,1.5,0.2L0.3,1.4C0.1,1.6,0,1.8,0,2
	c0,0.2,0.1,0.4,0.3,0.6l9.9,9.5l-9.9,9.5C0.1,21.6,0,21.8,0,22c0,0.2,0.1,0.4,0.3,0.6l1.3,1.2C1.7,23.9,1.9,24,2.1,24
	c0.2,0,0.4-0.1,0.6-0.2l11.7-11.2C14.5,12.4,14.6,12.2,14.6,12z"/>
</svg>
