<?xml version="1.0" encoding="utf-8"?>
<!-- Generator: Adobe Illustrator 25.2.3, SVG Export Plug-In . SVG Version: 6.00 Build 0)  -->
<svg version="1.1" id="Layer_1" xmlns="http://www.w3.org/2000/svg" xmlns:xlink="http://www.w3.org/1999/xlink" x="0px" y="0px"
	 viewBox="0 0 14.6 24" style="enable-background:new 0 0 14.6 24;" xml:space="preserve">
<style type="text/css">
	.st0{fill:#FFDFA6;}
</style>
<path class="st0" d="M0,12c0,0.2,0.1,0.4,0.3,0.6l11.7,11.2c0.2,0.1,0.4,0.2,0.6,0.2c0.2,0,0.4-0.1,0.6-0.2l1.3-1.2
	c0.2-0.1,0.3-0.4,0.3-0.6c0-0.2-0.1-0.4-0.3-0.6L4.5,12l9.9-9.5c0.2-0.1,0.3-0.4,0.3-0.6c0-0.2-0.1-0.4-0.3-0.6l-1.3-1.2
	C12.9,0.1,12.7,0,12.5,0c-0.2,0-0.4,0.1-0.6,0.2L0.3,11.5C0.1,11.6,0,11.8,0,12z"/>
</svg>
