<?xml version="1.0" encoding="utf-8"?>
<!-- Generator: Adobe Illustrator 25.2.3, SVG Export Plug-In . SVG Version: 6.00 Build 0)  -->
<svg version="1.1" id="Layer_2" xmlns="http://www.w3.org/2000/svg" xmlns:xlink="http://www.w3.org/1999/xlink" x="0px" y="0px"
	 viewBox="0 0 202.5 172.4" style="enable-background:new 0 0 202.5 172.4;" xml:space="preserve">
<style type="text/css">
	.st0{fill-rule:evenodd;clip-rule:evenodd;fill:#FFDFA6;}
	.st1{fill:#511B00;}
	.st2{fill-rule:evenodd;clip-rule:evenodd;fill:#FFFFFF;}
	.st3{fill-rule:evenodd;clip-rule:evenodd;fill:#511B00;}
	.st4{fill:url(#SVGID_1_);}
	.st5{fill:url(#SVGID_2_);}
	.st6{fill:url(#SVGID_3_);}
	.st7{fill:url(#SVGID_4_);}
	.st8{fill:url(#SVGID_5_);}
</style>
<g>
	<g>
		<path class="st0" d="M81.8,59.1l5.7-4.7c0,0-22.8-24.2-42.6-50.2c0,0-1.8,0.5-3.6-0.5c-1.7-1-4.3-4.2-6.2-2.8
			c-0.1,0.1-0.4,0.3-0.5,0.4C32.8,3,35.4,6.2,36,8.1c0.6,1.9-0.3,3.6-0.3,3.6C57,36.4,75.9,63.8,75.9,63.8l5.7-4.6l0,0L81.8,59.1
			L81.8,59.1L81.8,59.1z"/>
		<path class="st1" d="M36.1,0.7c1.7,0,3.7,2.3,5.2,3.1c0.9,0.5,1.8,0.6,2.5,0.6c0.6,0,1.1-0.1,1.1-0.1c19.7,26,42.6,50.2,42.6,50.2
			l-5.7,4.7l0,0l-0.1,0l-0.1,0l0,0l-5.7,4.6c0,0-18.9-27.4-40.2-52.1c0,0,0.8-1.7,0.3-3.6c-0.6-1.9-3.2-5.1-1.4-6.7
			C34.7,1.3,35,1.1,35.1,1C35.4,0.8,35.8,0.7,36.1,0.7 M36.1,0c-0.5,0-1,0.2-1.4,0.5c-0.1,0.1-0.4,0.4-0.5,0.4
			c-1.7,1.5-0.5,3.8,0.4,5.6c0.3,0.6,0.6,1.2,0.8,1.7c0.5,1.6-0.2,3.1-0.2,3.1c-0.1,0.2-0.1,0.5,0.1,0.7
			c21,24.4,39.9,51.8,40.1,52.1c0.1,0.1,0.3,0.2,0.4,0.3c0,0,0.1,0,0.1,0c0.1,0,0.3,0,0.4-0.1l5.7-4.6c0,0,0.1-0.1,0.1-0.1l5.7-4.7
			c0.1-0.1,0.2-0.3,0.2-0.5c0-0.2-0.1-0.4-0.2-0.5c-0.2-0.2-23-24.5-42.5-50.1c-0.1-0.2-0.3-0.3-0.5-0.3c-0.1,0-0.1,0-0.2,0
			c0,0-0.4,0.1-0.9,0.1c-0.6,0-1.4-0.1-2.2-0.5c-0.4-0.2-1-0.7-1.5-1.1C38.9,1.1,37.5,0,36.1,0L36.1,0z"/>
	</g>
	<g>
		<polygon class="st2" points="87.9,53.6 74.9,64.1 144.8,150.2 151.4,151.6 165.1,165.2 168.5,162.5 157.8,146.5 157.6,139.5 		"/>
		<path class="st1" d="M87.9,53.6l69.6,85.9l0.3,7l10.7,15.9l-3.4,2.8l-13.7-13.6l-6.6-1.4L74.9,64.1L87.9,53.6 M87.9,53
			c-0.1,0-0.3,0-0.4,0.1l-13,10.5c-0.1,0.1-0.2,0.3-0.2,0.4c0,0.2,0,0.3,0.1,0.5l69.8,86.1c0.1,0.1,0.2,0.2,0.4,0.2l6.4,1.4
			l13.6,13.5c0.1,0.1,0.3,0.2,0.5,0.2c0.1,0,0.3,0,0.4-0.1l3.4-2.8c0.3-0.2,0.3-0.6,0.1-0.9l-10.6-15.8l-0.3-6.8
			c0-0.1-0.1-0.3-0.1-0.4L88.4,53.2C88.3,53.1,88.1,53,87.9,53L87.9,53z"/>
	</g>
	<rect x="132" y="131.2" transform="matrix(0.7774 -0.629 0.629 0.7774 -51.4638 117.6355)" class="st3" width="17" height="0.7"/>
	
		<rect x="142.1" y="143.7" transform="matrix(0.7774 -0.629 0.629 0.7774 -57.0601 126.7548)" class="st3" width="17" height="0.7"/>
	<path class="st3" d="M83.4,75l0.4,0.5L97,64.8l-0.4-0.5L83.4,75z M83.4,75"/>
	<path class="st3" d="M101.2,83.2c0.8-0.7,2-0.7,2.5,0l1.8,2.3c0.5,0.7,0.3,1.8-0.5,2.5c-0.8,0.7-2,0.7-2.5,0l-1.8-2.3
		C100.1,85,100.4,83.9,101.2,83.2L101.2,83.2z M101.2,83.2"/>
	
		<linearGradient id="SVGID_1_" gradientUnits="userSpaceOnUse" x1="528.1158" y1="-409.6731" x2="630.7018" y2="-179.4004" gradientTransform="matrix(-0.999 4.381841e-02 -4.381841e-02 -0.999 698.4097 -279.0775)">
		<stop  offset="0" style="stop-color:#BB9A66"/>
		<stop  offset="2.797789e-02" style="stop-color:#C7A871"/>
		<stop  offset="0.115" style="stop-color:#E7D18F"/>
		<stop  offset="0.16" style="stop-color:#F4E09A"/>
		<stop  offset="0.1993" style="stop-color:#E0C787"/>
		<stop  offset="0.2488" style="stop-color:#CCAE75"/>
		<stop  offset="0.2941" style="stop-color:#BF9F6A"/>
		<stop  offset="0.331" style="stop-color:#BB9A66"/>
		<stop  offset="0.7004" style="stop-color:#F6DD8A"/>
		<stop  offset="0.8297" style="stop-color:#D0B273"/>
		<stop  offset="0.917" style="stop-color:#BB9A66"/>
		<stop  offset="0.9825" style="stop-color:#A68050"/>
	</linearGradient>
	<polygon class="st4" points="147.3,65.6 148.9,71.8 144.2,67.5 139.6,72 140.9,65.7 134.8,64 140.8,62 139.3,55.9 144,60.1 
		148.5,55.7 147.2,61.9 153.3,63.6 	"/>
	
		<linearGradient id="SVGID_2_" gradientUnits="userSpaceOnUse" x1="558.4534" y1="-369.8679" x2="656.7601" y2="-149.2006" gradientTransform="matrix(-0.9976 6.936678e-02 -6.936678e-02 -0.9976 686.9736 -284.2813)">
		<stop  offset="0" style="stop-color:#BB9A66"/>
		<stop  offset="2.797789e-02" style="stop-color:#C7A871"/>
		<stop  offset="0.115" style="stop-color:#E7D18F"/>
		<stop  offset="0.16" style="stop-color:#F4E09A"/>
		<stop  offset="0.1993" style="stop-color:#E0C787"/>
		<stop  offset="0.2488" style="stop-color:#CCAE75"/>
		<stop  offset="0.2941" style="stop-color:#BF9F6A"/>
		<stop  offset="0.331" style="stop-color:#BB9A66"/>
		<stop  offset="0.7004" style="stop-color:#F6DD8A"/>
		<stop  offset="0.8297" style="stop-color:#D0B273"/>
		<stop  offset="0.917" style="stop-color:#BB9A66"/>
		<stop  offset="0.9825" style="stop-color:#A68050"/>
	</linearGradient>
	<polygon class="st5" points="112.5,39.8 113.5,43.4 110.7,41 108.1,43.6 108.7,40 105.2,39.1 108.6,37.9 107.7,34.3 110.5,36.7 
		113,34.1 112.4,37.7 115.9,38.6 	"/>
	
		<linearGradient id="SVGID_3_" gradientUnits="userSpaceOnUse" x1="646.8152" y1="-431.8018" x2="726.8466" y2="-252.1568" gradientTransform="matrix(-1 0 0 -1 718.4786 -271.4161)">
		<stop  offset="0" style="stop-color:#BB9A66"/>
		<stop  offset="2.797789e-02" style="stop-color:#C7A871"/>
		<stop  offset="0.115" style="stop-color:#E7D18F"/>
		<stop  offset="0.16" style="stop-color:#F4E09A"/>
		<stop  offset="0.1993" style="stop-color:#E0C787"/>
		<stop  offset="0.2488" style="stop-color:#CCAE75"/>
		<stop  offset="0.2941" style="stop-color:#BF9F6A"/>
		<stop  offset="0.331" style="stop-color:#BB9A66"/>
		<stop  offset="0.7004" style="stop-color:#F6DD8A"/>
		<stop  offset="0.8297" style="stop-color:#D0B273"/>
		<stop  offset="0.917" style="stop-color:#BB9A66"/>
		<stop  offset="0.9825" style="stop-color:#A68050"/>
	</linearGradient>
	<path class="st6" d="M39.9,116.8c6.3,1,11.3,6,12.3,12.4c1-6.3,6-11.3,12.4-12.3c-6.3-1-11.3-6-12.3-12.4
		C51.2,110.8,46.3,115.8,39.9,116.8z"/>
	
		<linearGradient id="SVGID_4_" gradientUnits="userSpaceOnUse" x1="553.4237" y1="-342.5717" x2="647.1251" y2="-132.242" gradientTransform="matrix(-1 0 0 -1 718.4786 -271.4161)">
		<stop  offset="0" style="stop-color:#BB9A66"/>
		<stop  offset="2.797789e-02" style="stop-color:#C7A871"/>
		<stop  offset="0.115" style="stop-color:#E7D18F"/>
		<stop  offset="0.16" style="stop-color:#F4E09A"/>
		<stop  offset="0.1993" style="stop-color:#E0C787"/>
		<stop  offset="0.2488" style="stop-color:#CCAE75"/>
		<stop  offset="0.2941" style="stop-color:#BF9F6A"/>
		<stop  offset="0.331" style="stop-color:#BB9A66"/>
		<stop  offset="0.7004" style="stop-color:#F6DD8A"/>
		<stop  offset="0.8297" style="stop-color:#D0B273"/>
		<stop  offset="0.917" style="stop-color:#BB9A66"/>
		<stop  offset="0.9825" style="stop-color:#A68050"/>
	</linearGradient>
	<path class="st7" d="M127.9,20.2c7.4,1.2,13.2,7,14.4,14.5c1.2-7.4,7-13.2,14.5-14.4c-7.4-1.2-13.2-7-14.4-14.5
		C141.1,13.1,135.3,19,127.9,20.2z"/>
	
		<linearGradient id="SVGID_5_" gradientUnits="userSpaceOnUse" x1="623.8931" y1="-441.5099" x2="682.1281" y2="-310.791" gradientTransform="matrix(-1 0 0 -1 718.4786 -271.4161)">
		<stop  offset="0" style="stop-color:#BB9A66"/>
		<stop  offset="2.797789e-02" style="stop-color:#C7A871"/>
		<stop  offset="0.115" style="stop-color:#E7D18F"/>
		<stop  offset="0.16" style="stop-color:#F4E09A"/>
		<stop  offset="0.1993" style="stop-color:#E0C787"/>
		<stop  offset="0.2488" style="stop-color:#CCAE75"/>
		<stop  offset="0.2941" style="stop-color:#BF9F6A"/>
		<stop  offset="0.331" style="stop-color:#BB9A66"/>
		<stop  offset="0.7004" style="stop-color:#F6DD8A"/>
		<stop  offset="0.8297" style="stop-color:#D0B273"/>
		<stop  offset="0.917" style="stop-color:#BB9A66"/>
		<stop  offset="0.9825" style="stop-color:#A68050"/>
	</linearGradient>
	<path class="st8" d="M71.5,138.4c4.6,0.8,8.2,4.4,9,9c0.8-4.6,4.4-8.2,9-9c-4.6-0.8-8.2-4.4-9-9C79.7,134,76.1,137.7,71.5,138.4z"
		/>
</g>
</svg>
