<?xml version="1.0" encoding="utf-8"?>
<!-- Generator: Adobe Illustrator 25.2.3, SVG Export Plug-In . SVG Version: 6.00 Build 0)  -->
<svg version="1.1" id="Layer_2" xmlns="http://www.w3.org/2000/svg" xmlns:xlink="http://www.w3.org/1999/xlink" x="0px" y="0px"
	 viewBox="0 0 202.5 172.4" style="enable-background:new 0 0 202.5 172.4;" xml:space="preserve">
<style type="text/css">
	.st0{fill:#FFDFA6;}
	.st1{fill:#511B00;}
	.st2{fill:url(#SVGID_1_);}
	.st3{fill:url(#SVGID_2_);}
</style>
<g>
	<g>
		<g>
			<g>
				<path class="st0" d="M171,167.8L11.4,140.3C3.9,139-1.1,132,0.2,124.5l15.5-90.2C17,26.9,24,21.9,31.5,23.1l159.7,27.4
					c7.4,1.3,12.4,8.3,11.2,15.8l-15.5,90.2C185.5,164,178.5,169,171,167.8z"/>
			</g>
			<path class="st1" d="M173,163.2c-0.5,0-1.1,0-1.6-0.1L12.6,135.7c-2.5-0.4-4.6-1.8-6.1-3.8c-1.4-2-2-4.5-1.6-7l15.4-89.4
				c0.9-5.1,5.7-8.5,10.8-7.6l158.8,27.3c5.1,0.9,8.5,5.7,7.6,10.8l-15.4,89.4C181.4,159.9,177.5,163.2,173,163.2z M29.5,28.9
				c-3.9,0-7.4,2.8-8.1,6.9L6,125.1c-0.4,2.2,0.1,4.4,1.4,6.2s3.2,3,5.3,3.4l158.8,27.3c4.5,0.8,8.8-2.3,9.5-6.7l15.4-89.4
				c0.4-2.2-0.1-4.4-1.4-6.2c-1.3-1.8-3.2-3-5.3-3.4L30.9,29C30.5,28.9,30,28.9,29.5,28.9z"/>
			<g>
				<g>
					<g>
						<g>
							<path class="st1" d="M73,107.7l2.8,0.5c2,0.3,3.1,1.4,2.8,3.2c-0.3,1.8-1.8,2.4-3.8,2l-1.7-0.3l-0.8,4.5l-1-0.2L73,107.7z
								 M74.9,112.5c1.5,0.3,2.5-0.2,2.7-1.4c0.2-1.2-0.6-1.9-2.1-2.2l-1.7-0.3l-0.6,3.5L74.9,112.5z"/>
							<path class="st1" d="M78.9,118.8l0.3-0.9c0.2,0.1,0.4,0.2,0.7,0.2c0.6,0.1,1.1-0.2,1.6-0.8l0.9-1.1l-2.6-7.3l1.2,0.2l2.2,6.2
								l4.1-5.1l1.1,0.2l-5.9,7.4c-0.7,0.9-1.4,1.5-2.6,1.3C79.4,119,79.1,118.9,78.9,118.8z"/>
							<path class="st1" d="M89.6,110.6l5.8,1l-0.2,0.9l-4.8-0.8l-0.6,3.3l1.9,0.3c2.1,0.4,3.4,1.5,3,3.4c-0.3,1.8-1.9,2.5-4,2.2
								l-3-0.5L89.6,110.6z M90.9,120c1.6,0.3,2.7-0.1,2.9-1.4c0.2-1.3-0.6-2.1-2.3-2.4l-1.9-0.3l-0.7,3.8L90.9,120z"/>
							<path class="st1" d="M95,121.5l0.3-0.9c0.2,0.1,0.3,0.2,0.6,0.2c1.7,0.3,2.6-1.4,3.4-6.4l0.4-2.1l5.8,1l-1.7,9.8l-1-0.2
								l1.5-8.9l-3.9-0.7l-0.3,1.7c-0.8,4.8-2,7.1-4.3,6.7C95.7,121.8,95.3,121.6,95,121.5z"/>
							<path class="st1" d="M108.2,113.8l6.1,1l-0.2,0.9l-5.1-0.9l-0.6,3.4l4.7,0.8l-0.1,0.9l-4.7-0.8l-0.6,3.8l5.2,0.9l-0.2,0.9
								l-6.2-1.1L108.2,113.8z"/>
							<path class="st1" d="M116.3,115.2l1,0.2l-1.4,8.2l0,0l6.8-7.3l1.1,0.2l-1.7,9.8l-1-0.2l1.4-8.3l0,0l-6.8,7.4l-1.1-0.2
								L116.3,115.2z M118.5,112.8l0.7,0c0,0.7,0.5,1.3,1.2,1.4c0.7,0.1,1.3-0.2,1.6-0.9l0.6,0.2c-0.3,1.1-1.2,1.6-2.3,1.4
								C119.1,114.7,118.5,113.8,118.5,112.8z"/>
						</g>
					</g>
				</g>
			</g>
		</g>
		<g>
			<path class="st1" d="M67.2,96.1l0.9-5.4l11.2-8c1.4-1.1,2.4-2.2,2.7-3.8c0.3-1.9-0.6-3.5-2.5-3.8c-1.9-0.3-3.5,1.1-4.2,3.5
				L70,76.8c1.5-5.4,6.1-8,10.8-7.2c4.5,0.8,8.4,4.2,7.4,9.9c-0.7,3.9-3.1,5.8-5.7,7.6l-6.6,4.6l10,1.7l-1,5.6L67.2,96.1z"/>
			<path class="st1" d="M97.8,102.1c-6.9-1.2-8.4-8.3-7.1-16.1c1.3-7.7,5.1-13.8,12-12.6c6.9,1.2,8.4,8.2,7.1,15.9
				C108.5,97,104.7,103.3,97.8,102.1z M101.8,78.9c-3.1-0.5-4.6,4.8-5.2,8.2c-0.6,3.5-0.9,9,2.1,9.5c3,0.5,4.5-4.8,5.1-8.3
				C104.5,84.9,104.9,79.4,101.8,78.9z"/>
			<path class="st1" d="M120.3,105.9c-6.9-1.2-8.4-8.3-7.1-16.1c1.3-7.7,5.1-13.8,12-12.6c6.9,1.2,8.4,8.2,7.1,15.9
				C131,100.9,127.2,107.1,120.3,105.9z M124.3,82.7c-3.1-0.5-4.6,4.8-5.2,8.2c-0.6,3.5-0.9,9,2.1,9.5c3,0.5,4.5-4.8,5.1-8.3
				C127,88.7,127.3,83.3,124.3,82.7z"/>
		</g>
	</g>
	
		<linearGradient id="SVGID_1_" gradientUnits="userSpaceOnUse" x1="489.2101" y1="-411.077" x2="642.9323" y2="-66.0198" gradientTransform="matrix(-0.999 4.381841e-02 -4.381841e-02 -0.999 698.4097 -279.0775)">
		<stop  offset="0" style="stop-color:#BB9A66"/>
		<stop  offset="2.797789e-02" style="stop-color:#C7A871"/>
		<stop  offset="0.115" style="stop-color:#E7D18F"/>
		<stop  offset="0.16" style="stop-color:#F4E09A"/>
		<stop  offset="0.1993" style="stop-color:#E0C787"/>
		<stop  offset="0.2488" style="stop-color:#CCAE75"/>
		<stop  offset="0.2941" style="stop-color:#BF9F6A"/>
		<stop  offset="0.331" style="stop-color:#BB9A66"/>
		<stop  offset="0.7004" style="stop-color:#F6DD8A"/>
		<stop  offset="0.8297" style="stop-color:#D0B273"/>
		<stop  offset="0.917" style="stop-color:#BB9A66"/>
		<stop  offset="0.9825" style="stop-color:#A68050"/>
	</linearGradient>
	<polygon class="st2" points="165.6,21.6 167.9,30.8 160.9,24.5 154,31.1 156,21.8 146.8,19.2 155.9,16.2 153.5,7 160.6,13.3 
		167.4,6.7 165.5,16 174.6,18.6 	"/>
	
		<linearGradient id="SVGID_2_" gradientUnits="userSpaceOnUse" x1="575.9067" y1="-317.6842" x2="620.6069" y2="-217.3465" gradientTransform="matrix(-1 0 0 -1 718.4786 -271.4161)">
		<stop  offset="0" style="stop-color:#BB9A66"/>
		<stop  offset="2.797789e-02" style="stop-color:#C7A871"/>
		<stop  offset="0.115" style="stop-color:#E7D18F"/>
		<stop  offset="0.16" style="stop-color:#F4E09A"/>
		<stop  offset="0.1993" style="stop-color:#E0C787"/>
		<stop  offset="0.2488" style="stop-color:#CCAE75"/>
		<stop  offset="0.2941" style="stop-color:#BF9F6A"/>
		<stop  offset="0.331" style="stop-color:#BB9A66"/>
		<stop  offset="0.7004" style="stop-color:#F6DD8A"/>
		<stop  offset="0.8297" style="stop-color:#D0B273"/>
		<stop  offset="0.917" style="stop-color:#BB9A66"/>
		<stop  offset="0.9825" style="stop-color:#A68050"/>
	</linearGradient>
	<path class="st3" d="M124.8,21.9c3.5,0.6,6.3,3.4,6.9,6.9c0.6-3.5,3.4-6.3,6.9-6.9c-3.5-0.6-6.3-3.4-6.9-6.9
		C131.2,18.6,128.4,21.4,124.8,21.9z"/>
</g>
</svg>
