<?xml version="1.0" encoding="utf-8"?>
<!-- Generator: Adobe Illustrator 25.2.3, SVG Export Plug-In . SVG Version: 6.00 Build 0)  -->
<svg version="1.1" id="Layer_2" xmlns="http://www.w3.org/2000/svg" xmlns:xlink="http://www.w3.org/1999/xlink" x="0px" y="0px"
	 viewBox="0 0 202.5 172.4" style="enable-background:new 0 0 202.5 172.4;" xml:space="preserve">
<style type="text/css">
	.st0{fill:#FFDFA6;}
	.st1{fill:#511B00;}
	.st2{fill:url(#SVGID_1_);}
	.st3{fill:url(#SVGID_2_);}
</style>
<g>
	<g>
		<g>
			<g>
				<path class="st0" d="M183,110.7L58.4,166c-4.2,1.8-9,0-10.9-4.2L15.3,89.2c-1.8-4.2,0-9,4.2-10.9l124.6-55.3
					c4.2-1.8,9,0,10.9,4.2l32.2,72.6C189,104,187.2,108.9,183,110.7z"/>
			</g>
			<path class="st1" d="M56.7,161.9c-0.9,0-1.8-0.2-2.7-0.5c-1.9-0.7-3.4-2.1-4.2-4L20.1,90.5c-0.8-1.8-0.9-3.9-0.1-5.8
				c0.7-1.9,2.1-3.4,4-4.2l118.8-52.7c3.8-1.7,8.3,0,10,3.8l29.7,66.9c1.7,3.8,0,8.3-3.8,10L59.7,161.3
				C58.8,161.7,57.7,161.9,56.7,161.9z M143,28.2l0.2,0.4L24.3,81.4c-3.4,1.5-4.9,5.4-3.4,8.8l29.7,66.9c1.5,3.4,5.4,4.9,8.8,3.4
				l118.8-52.7c3.4-1.5,4.9-5.4,3.4-8.8L151.9,32c-1.5-3.4-5.4-4.9-8.8-3.4L143,28.2z"/>
			<g>
				<g>
					<g>
						<g>
							<path class="st1" d="M87.7,115.4l2.1-0.9c1.5-0.7,2.7-0.5,3.3,0.9c0.6,1.3-0.1,2.4-1.6,3.1l-1.3,0.6l1.5,3.4l-0.7,0.3
								L87.7,115.4z M91.2,117.8c1.2-0.5,1.6-1.3,1.2-2.1c-0.4-0.9-1.2-1-2.4-0.5l-1.3,0.6l1.2,2.6L91.2,117.8z"/>
							<path class="st1" d="M96.7,120.2l-0.2-0.8c0.2,0,0.4-0.1,0.6-0.2c0.5-0.2,0.7-0.6,0.7-1.3l0.1-1.1l-5.1-3.7l0.9-0.4l4.3,3.2
								l0.4-5.3l0.8-0.4l-0.7,7.6c-0.1,0.9-0.3,1.6-1.1,2C97.1,120.1,96.9,120.2,96.7,120.2z"/>
							<path class="st1" d="M100.2,109.9l4.3-1.9l0.3,0.7l-3.6,1.6l1.1,2.5l1.5-0.6c1.6-0.7,2.9-0.5,3.5,0.9s-0.1,2.5-1.7,3.2
								l-2.2,1L100.2,109.9z M105.3,115.6c1.2-0.5,1.7-1.3,1.3-2.3c-0.4-0.9-1.3-1.1-2.6-0.6l-1.4,0.6l1.3,2.9L105.3,115.6z"/>
							<path class="st1" d="M108.7,114.8l-0.2-0.7c0.2,0,0.3,0,0.5-0.1c1.2-0.5,1.1-2.1-0.6-5.9l-0.7-1.6l4.4-1.9l3.2,7.3l-0.7,0.3
								l-3-6.7l-2.9,1.3l0.6,1.3c1.6,3.6,1.9,5.7,0.1,6.4C109.3,114.7,109,114.8,108.7,114.8z"/>
							<path class="st1" d="M114.1,103.7l4.5-2l0.3,0.7l-3.8,1.7l1.1,2.5l3.5-1.6l0.3,0.6l-3.5,1.6l1.2,2.8l3.9-1.7l0.3,0.7
								l-4.7,2.1L114.1,103.7z"/>
							<path class="st1" d="M120.2,101l0.7-0.3l2.7,6.1l0,0l1.3-7.9l0.8-0.4l3.2,7.3l-0.7,0.3l-2.8-6.2l0,0l-1.3,8l-0.8,0.4
								L120.2,101z M120.6,98.4l0.4-0.3c0.3,0.5,0.9,0.6,1.4,0.4c0.5-0.2,0.8-0.7,0.7-1.3l0.5-0.1c0.3,0.8-0.1,1.6-0.9,2
								S121,99.2,120.6,98.4z"/>
						</g>
					</g>
				</g>
			</g>
		</g>
		<g>
			<path class="st1" d="M84.7,107.6l-6.6-14.9l-2.1,4.4l-3.8-2.4l3.8-7.6l4-1.8l9,20.3L84.7,107.6z"/>
			<path class="st1" d="M101,101c-5.2,2.3-9.4-1.8-11.9-7.6c-2.6-5.7-2.7-11.5,2.4-13.8c5.2-2.3,9.3,1.8,11.8,7.5
				C105.9,92.8,106.1,98.7,101,101z M93.3,83.6c-2.3,1-0.9,5.2,0.2,7.8c1.2,2.6,3.4,6.4,5.7,5.4c2.3-1,0.9-5.2-0.3-7.8
				C97.7,86.5,95.5,82.6,93.3,83.6z"/>
			<path class="st1" d="M118.1,93.4c-5.2,2.3-9.4-1.8-11.9-7.6c-2.5-5.7-2.7-11.5,2.4-13.8c5.2-2.3,9.3,1.8,11.8,7.5
				C123,85.2,123.2,91.1,118.1,93.4z M110.4,76c-2.3,1-0.9,5.2,0.2,7.8c1.2,2.6,3.4,6.4,5.7,5.4c2.3-1,0.9-5.2-0.3-7.8
				C114.8,78.9,112.6,75,110.4,76z"/>
		</g>
	</g>
	
		<linearGradient id="SVGID_1_" gradientUnits="userSpaceOnUse" x1="504.6127" y1="-516.8696" x2="625.856" y2="-244.717" gradientTransform="matrix(-0.999 4.381841e-02 -4.381841e-02 -0.999 698.4097 -279.0775)">
		<stop  offset="0" style="stop-color:#BB9A66"/>
		<stop  offset="2.797789e-02" style="stop-color:#C7A871"/>
		<stop  offset="0.115" style="stop-color:#E7D18F"/>
		<stop  offset="0.16" style="stop-color:#F4E09A"/>
		<stop  offset="0.1993" style="stop-color:#E0C787"/>
		<stop  offset="0.2488" style="stop-color:#CCAE75"/>
		<stop  offset="0.2941" style="stop-color:#BF9F6A"/>
		<stop  offset="0.331" style="stop-color:#BB9A66"/>
		<stop  offset="0.7004" style="stop-color:#F6DD8A"/>
		<stop  offset="0.8297" style="stop-color:#D0B273"/>
		<stop  offset="0.917" style="stop-color:#BB9A66"/>
		<stop  offset="0.9825" style="stop-color:#A68050"/>
	</linearGradient>
	<polygon class="st2" points="168,155.7 169.8,163 164.2,158 158.8,163.2 160.4,155.9 153.2,153.8 160.3,151.5 158.4,144.2 
		164,149.2 169.4,144 167.9,151.3 175.1,153.4 	"/>
	
		<linearGradient id="SVGID_2_" gradientUnits="userSpaceOnUse" x1="661.4418" y1="-343.0601" x2="720.8035" y2="-209.812" gradientTransform="matrix(-1 0 0 -1 718.4786 -271.4161)">
		<stop  offset="0" style="stop-color:#BB9A66"/>
		<stop  offset="2.797789e-02" style="stop-color:#C7A871"/>
		<stop  offset="0.115" style="stop-color:#E7D18F"/>
		<stop  offset="0.16" style="stop-color:#F4E09A"/>
		<stop  offset="0.1993" style="stop-color:#E0C787"/>
		<stop  offset="0.2488" style="stop-color:#CCAE75"/>
		<stop  offset="0.2941" style="stop-color:#BF9F6A"/>
		<stop  offset="0.331" style="stop-color:#BB9A66"/>
		<stop  offset="0.7004" style="stop-color:#F6DD8A"/>
		<stop  offset="0.8297" style="stop-color:#D0B273"/>
		<stop  offset="0.917" style="stop-color:#BB9A66"/>
		<stop  offset="0.9825" style="stop-color:#A68050"/>
	</linearGradient>
	<path class="st3" d="M33.5,39.3c4.7,0.8,8.4,4.5,9.2,9.2c0.8-4.7,4.5-8.4,9.2-9.2c-4.7-0.8-8.4-4.5-9.2-9.2
		C41.9,34.9,38.2,38.6,33.5,39.3z"/>
</g>
</svg>
