<?xml version="1.0" encoding="utf-8"?>
<!-- Generator: Adobe Illustrator 25.2.3, SVG Export Plug-In . SVG Version: 6.00 Build 0)  -->
<svg version="1.1" id="Layer_2" xmlns="http://www.w3.org/2000/svg" xmlns:xlink="http://www.w3.org/1999/xlink" x="0px" y="0px"
	 viewBox="0 0 202.5 172.4" style="enable-background:new 0 0 202.5 172.4;" xml:space="preserve">
<style type="text/css">
	.st0{fill:#511B00;}
	.st1{fill:#FFDFA6;}
	.st2{fill:#FFFFFF;}
	.st3{fill:#4F1A0F;}
	.st4{fill:url(#SVGID_1_);}
	.st5{fill:url(#SVGID_2_);}
</style>
<g>
	<g>
		<g>
			<g>
				<path class="st0" d="M146.5,112.4c1.4,1.8,1,4.4-0.8,5.8c-1.8,1.4-4.4,1-5.8-0.8c-1.4-1.8-1-4.4,0.8-5.8
					S145.1,110.6,146.5,112.4z"/>
			</g>
		</g>
		<g>
			<path class="st0" d="M152.6,84.6c-0.3-0.1-0.8-0.1-1.7,0.4c-2.6,1.4-6.7,4.4-11.7,8.2l0,0c0,0,0,0,0,0c0,0,0,0,0,0l0,0
				c-4.9,3.8-8.8,7-10.9,9.1c-0.7,0.7-0.8,1.2-0.8,1.5c0,0.9,2,2.1,3.8,3.5c2.4,1.9,3.3,2.7,4.3,3.2c0.4,0.2,2,0.6,3.6-0.5
				c0.9-0.6,5.9-4.4,8.3-6.2c2.4-1.8,7.4-5.6,8.2-6.3c1.4-1.3,1.5-3,1.4-3.4c-0.3-1.1-0.8-2.2-2-5C154.1,87.1,153.5,84.9,152.6,84.6
				z"/>
			<g>
				<path class="st1" d="M157.7,92.8c-3-0.3-10.6,5.4-13.2,7.5c-2.6,2-10.1,7.8-10.7,10.8c-0.7,3.6,3.9,22.8,8.7,29.9l2.6-1.4
					c0.5-0.2,0.7-0.7,0.7-1.3c-0.1-0.6-0.2-1.6-0.6-3.1c-0.9-3.3-2.3-7.6-2.4-8.5c0-0.9-0.1-2.5,0.7-3.8c0.9-1.3,1-1.1,1.6-1.6
					c0,0,0,0,0.1,0c0.4-0.2,0.7-0.3,1.4-0.7c0.7-0.4,1.5-1.2,1.9-1.5c0.3-0.2,3.5-2.7,5.7-4.3c1-0.8,1.8-1.4,1.8-1.4
					c2.1-1.6,5.4-4.1,5.7-4.3c0.4-0.3,1.3-0.9,1.9-1.4c0.6-0.6,0.7-0.7,1-1.1c0,0,0,0,0,0c0.6-0.4,0.5-0.6,2-1.1
					c1.5-0.5,3,0,3.8,0.3c0.9,0.3,4.7,2.8,7.6,4.5c1.4,0.8,2.3,1.2,2.9,1.4c0.5,0.2,1,0.1,1.4-0.3l2-2.2
					C178.7,102.5,161.4,93.1,157.7,92.8z"/>
				<path class="st0" d="M134.2,110.3c1.4-3.1,8-8.2,10.4-10c2.6-2,10.2-7.7,13.2-7.5c3.6,0.3,20.9,9.7,26.6,16.2l-2,2.2
					c-0.4,0.4-0.9,0.5-1.4,0.3c-0.6-0.2-1.5-0.6-2.9-1.4c-2.9-1.7-6.7-4.2-7.6-4.5c-0.9-0.3-2.4-0.8-3.8-0.3c-1.5,0.5-1.3,0.7-2,1.1
					c0,0,0,0,0,0c-0.3,0.4-0.4,0.6-1,1.1c-0.6,0.6-1.5,1.1-1.9,1.4c-0.3,0.2-3.5,2.7-5.7,4.3c0,0-0.8,0.6-1.8,1.4
					c-2.1,1.6-5.4,4.1-5.7,4.3c-0.4,0.3-1.2,1-1.9,1.5c-0.7,0.4-0.9,0.5-1.4,0.7c0,0,0,0-0.1,0c-0.6,0.5-0.7,0.3-1.6,1.6
					c-0.1,0.2-0.2,0.3-0.3,0.5c-0.5,1.2-0.5,2.4-0.4,3.2c0,0.9,1.5,5.3,2.4,8.5c0.4,1.5,0.6,2.5,0.6,3.1c0,0.2,0,0.5-0.1,0.7
					c-0.1,0.2-0.3,0.5-0.6,0.6l-2.6,1.4c-4.8-7.1-9.3-26.3-8.7-29.9C134,110.8,134,110.5,134.2,110.3 M133.9,110.2
					c-0.1,0.3-0.2,0.6-0.3,0.8c-0.7,3.6,3.9,22.9,8.7,30.1c0.1,0.1,0.2,0.2,0.4,0.1l2.6-1.4c0.3-0.2,0.5-0.4,0.7-0.7
					c0.1-0.3,0.2-0.5,0.1-0.8c-0.1-0.8-0.3-1.9-0.6-3.2c-0.4-1.4-0.8-2.9-1.2-4.3c-0.6-1.9-1.1-3.7-1.1-4.2c0-0.7-0.1-2,0.4-3.1
					c0.1-0.2,0.2-0.3,0.3-0.5c0.6-0.9,0.8-1,1.1-1.2c0.1-0.1,0.3-0.2,0.4-0.3l0,0l0.2-0.1c0.3-0.1,0.6-0.3,1.1-0.6
					c0.5-0.3,1-0.7,1.4-1.1c0.2-0.2,0.3-0.3,0.5-0.4l5.7-4.3l1.8-1.4l3.9-3l1.8-1.4c0.1-0.1,0.3-0.2,0.5-0.4c0.4-0.3,1-0.7,1.4-1.1
					c0.5-0.5,0.7-0.7,0.9-0.9l0.2-0.2c0.2-0.1,0.3-0.2,0.4-0.3c0.3-0.2,0.5-0.4,1.5-0.7c1.4-0.5,2.9,0,3.7,0.3
					c0.5,0.2,2.1,1.1,3.8,2.2c1.2,0.8,2.6,1.6,3.8,2.3c1.2,0.7,2.1,1.2,2.9,1.5c0.6,0.2,1.3,0.1,1.7-0.4l2-2.2c0,0,0,0,0.1-0.1
					c0-0.1,0-0.2,0-0.3c-5.7-6.6-23.1-16-26.7-16.3c-3-0.3-10.4,5.2-13.4,7.5C141.7,102,135.3,107.1,133.9,110.2L133.9,110.2z"/>
			</g>
			<g>
				<g>
					<path class="st0" d="M162.4,100.3c1.4,1.8,1,4.4-0.8,5.8s-4.4,1-5.8-0.8c-1.4-1.8-1-4.4,0.8-5.8
						C158.4,98.1,161,98.4,162.4,100.3z"/>
				</g>
			</g>
			<g>
				<path class="st0" d="M150.2,86.3c-0.3-0.1-0.7-0.2-1.5,0.2c-2.2,1.1-5.6,3.5-9.6,6.6l0,0c0,0,0,0,0,0c0,0,0,0,0,0l0,0
					c-4,3.1-7.2,5.7-8.8,7.5c-0.6,0.6-0.6,1-0.6,1.4c0.1,0.9,1.9,2.1,3.6,3.6c2.3,2,3.2,2.8,4.1,3.4c0.3,0.2,1.8,0.7,3.2-0.1
					c0.7-0.4,4.8-3.6,6.7-5.1c1.9-1.5,6-4.6,6.7-5.2c1.2-1.1,1.1-2.7,0.9-3c-0.3-1.1-0.9-2.1-2.2-4.8
					C151.7,88.8,151,86.6,150.2,86.3z"/>
				<g>
					<path class="st2" d="M149.6,86.5c-0.3-0.1-0.7-0.2-1.4,0.2c-2.1,1-5.3,3.3-9.2,6.2l0,0c0,0,0,0,0,0c0,0,0,0,0,0l0,0
						c-3.8,2.9-6.8,5.5-8.4,7.2c-0.5,0.6-0.6,1-0.6,1.3c0.1,0.9,1.9,2.1,3.6,3.6c2.3,2,3.1,2.8,4,3.4c0.3,0.2,1.8,0.8,3.1,0
						c0.7-0.4,4.6-3.4,6.4-4.8c1.9-1.4,5.8-4.4,6.4-4.9c1.1-1,1-2.6,0.8-3c-0.4-1.1-0.9-2.1-2.3-4.8
						C151.1,88.9,150.4,86.8,149.6,86.5z"/>
					<path class="st0" d="M130.1,100.7c0.1-0.2,0.2-0.4,0.4-0.6c1.5-1.7,4.5-4.3,8.4-7.2c0,0,0,0,0,0c0,0,0,0,0,0
						c3.8-2.9,7.1-5.2,9.2-6.2c0.7-0.4,1.1-0.3,1.4-0.2c0.8,0.3,1.6,2.4,2.6,4.5c1.4,2.7,1.9,3.8,2.3,4.8c0.1,0.3,0.2,1.2-0.2,2.1
						c-0.1,0.3-0.3,0.6-0.6,0.9c-0.6,0.6-4.5,3.5-6.4,4.9c-1.9,1.4-5.7,4.4-6.4,4.8c-1.3,0.8-2.7,0.2-3.1,0c-0.9-0.6-1.8-1.4-4-3.4
						c-1.7-1.5-3.5-2.8-3.6-3.6C130,101.2,130,101,130.1,100.7 M129.9,100.6c-0.2,0.4-0.2,0.7-0.1,0.8c0.1,0.8,1.1,1.6,2.5,2.8
						c0.4,0.3,0.8,0.7,1.3,1.1l1,0.9c1.6,1.4,2.3,2,3.1,2.6c0.3,0.2,1.9,0.9,3.4,0c0.6-0.4,3.5-2.5,5.5-4.1l0.9-0.7l0.9-0.7
						c2.1-1.6,4.9-3.8,5.5-4.3c0.3-0.3,0.5-0.6,0.7-0.9c0.4-1,0.3-2,0.2-2.3c-0.3-0.9-0.7-1.8-1.7-3.6l-0.6-1.2
						c-0.3-0.5-0.5-1-0.7-1.5c-0.7-1.6-1.3-2.8-2-3.1c-0.3-0.1-0.8-0.2-1.6,0.2c-2,1-5.1,3.1-9.2,6.2c-4.1,3.1-7,5.6-8.4,7.2
						C130.1,100.2,130,100.4,129.9,100.6L129.9,100.6z"/>
				</g>
			</g>
			<g>
				<g>
					<path class="st1" d="M158.5,79.8C158.5,79.8,158.5,79.8,158.5,79.8c0,0-0.1-0.1-0.1-0.1c-0.1,0-1.6-0.1-3.5,0.8
						c-2,0.9-3.7,2.7-3.7,2.8c0,0.1,0,0.1,0,0.1c0,0,0,0,0,0l0.5,1l7.7-3.9L158.5,79.8z"/>
					<path class="st0" d="M151.2,83.3c0.1-0.1,1.8-1.9,3.7-2.8c2-0.9,3.4-0.8,3.5-0.8c0.1,0,0.1,0,0.1,0c0,0,0,0,0,0l0.9,0.8
						l-7.7,3.9l-0.5-1c0,0,0,0,0,0C151.2,83.4,151.2,83.4,151.2,83.3C151.2,83.3,151.2,83.3,151.2,83.3 M150.9,83.2
						C150.9,83.2,150.9,83.2,150.9,83.2c0,0.1-0.1,0.2,0,0.3c0,0,0,0.1,0,0.1l0.5,1c0,0.1,0.1,0.1,0.2,0.1c0.1,0,0.1,0,0.2,0
						l7.7-3.9c0.1,0,0.1-0.1,0.1-0.1c0,0,0-0.1,0-0.1c0-0.1,0-0.2-0.1-0.2l-0.9-0.8c-0.1-0.1-0.2-0.1-0.3-0.1c-0.4,0-1.8,0-3.7,0.8
						C152.8,81.2,151,83,150.9,83.2L150.9,83.2z"/>
				</g>
			</g>
			<g>
				<path class="st2" d="M184.3,109c0.3-0.2,1.7-1.2,1.1-4.6c-0.7-3.8-6.7-11.4-12.1-15.9c-5.4-4.5-12.4-8.1-12.6-8.3
					c-0.3-0.1-0.3-0.2-0.4-0.2c-0.1,0-2.7,1.1-4.8,2.2c-2.2,1.1-3.8,2-4.1,2.4c-0.3,0.4-0.7,1.3-0.3,2.2c0.4,1,1.6,3.5,1.9,4
					c0.2,0.5,1,2.2,1.3,2.7c0.3,0.5,0.8,1.3,1.5,1.9c0.7,0.6,1.3,0.8,2.3,1c1,0.3,3.2,0.6,4.7,1.1c1.5,0.5,5.7,2.2,9.5,4.3
					c3.9,2.1,8.3,5.3,9.4,6C182.5,108.7,183.8,109.4,184.3,109z"/>
				<path class="st0" d="M151.1,85.2c0.1-0.2,0.2-0.3,0.3-0.4c0.3-0.4,2-1.3,4.1-2.4c2.2-1.1,4.7-2.2,4.8-2.2c0.1,0,0.2,0.1,0.4,0.2
					c0.2,0.1,7.3,3.8,12.6,8.3c5.4,4.5,11.4,12.1,12.1,15.9c0.3,1.7,0.1,2.8-0.2,3.5c-0.3,0.7-0.7,1-0.9,1.1c-0.6,0.4-1.8-0.3-2.8-1
					c-1.1-0.7-5.5-3.9-9.4-6c-3.9-2.1-8-3.8-9.5-4.3c-1.5-0.5-3.8-0.8-4.7-1.1c-1-0.3-1.6-0.5-2.3-1c-0.7-0.6-1.2-1.4-1.5-1.9
					c-0.3-0.5-1-2.2-1.3-2.7c-0.2-0.5-1.5-3-1.9-4C150.7,86.3,150.9,85.6,151.1,85.2 M150.8,85.1c-0.2,0.5-0.4,1.2-0.1,2
					c0.3,0.8,1.2,2.5,1.6,3.5c0.1,0.2,0.2,0.4,0.3,0.5c0.1,0.1,0.1,0.3,0.3,0.5c0.3,0.7,0.8,1.8,1,2.2c0.3,0.4,0.8,1.4,1.5,2
					c0.7,0.6,1.3,0.8,2.4,1.1c0.4,0.1,0.9,0.2,1.6,0.3c1,0.2,2.2,0.4,3.1,0.8c1.7,0.6,5.8,2.2,9.5,4.3c3.2,1.8,6.9,4.3,8.6,5.5
					c0.3,0.2,0.6,0.4,0.7,0.5c1.5,1,2.5,1.4,3.1,1c0.4-0.3,0.8-0.7,1-1.2c0.4-0.9,0.5-2.2,0.3-3.6c-0.7-4.1-7-11.8-12.2-16.1
					c-5.5-4.5-12.6-8.3-12.7-8.3l-0.2-0.1c-0.1-0.1-0.2-0.1-0.3-0.1c-0.4-0.1-4.5,1.9-5,2.2c-2.7,1.4-3.9,2.1-4.2,2.5
					C151,84.7,150.9,84.9,150.8,85.1L150.8,85.1z"/>
			</g>
			<g>
				<g>
					<path class="st0" d="M160.3,85.3c0.7,0.9,0.5,2.3-0.4,3c-0.9,0.7-2.3,0.5-3-0.4c-0.7-0.9-0.5-2.3,0.4-3
						C158.3,84.1,159.6,84.3,160.3,85.3z"/>
				</g>
				<g>
					<path class="st0" d="M166.7,86.1c0.7,0.9,0.5,2.3-0.4,3c-0.9,0.7-2.3,0.5-3-0.4c-0.7-0.9-0.5-2.3,0.4-3
						C164.6,85,166,85.2,166.7,86.1z"/>
				</g>
				<g>
					<path class="st0" d="M165.9,92.6c0.7,0.9,0.5,2.3-0.4,3c-0.9,0.7-2.3,0.5-3-0.4c-0.7-0.9-0.5-2.3,0.4-3
						C163.8,91.4,165.2,91.6,165.9,92.6z"/>
				</g>
				<g>
					<path class="st0" d="M159.5,91.7c0.7,0.9,0.5,2.3-0.4,3c-0.9,0.7-2.3,0.5-3-0.4c-0.7-0.9-0.5-2.3,0.4-3
						C157.4,90.5,158.7,90.7,159.5,91.7z"/>
				</g>
			</g>
		</g>
		<g>
			<g>
				<path class="st1" d="M126.7,102.2C126.7,102.2,126.7,102.2,126.7,102.2c0,0-0.1,0-0.2,0c-0.1,0-2.3,1.2-3.7,2.8
					c-1.4,1.6-1.7,3.1-1.7,3.2c0,0.1,0,0.1,0,0.1c0,0,0,0,0,0l0.6,1.1l5.8-6.4L126.7,102.2z"/>
				<path class="st0" d="M121.6,107c0.3-0.6,0.7-1.3,1.3-2c1.4-1.6,3.6-2.8,3.7-2.8c0.1,0,0.1,0,0.1,0c0,0,0,0,0,0l0.8,0.8l-5.8,6.4
					l-0.6-1.1c0,0,0,0,0,0c0,0,0-0.1,0-0.1C121.2,108.1,121.3,107.7,121.6,107 M121.3,106.9c-0.2,0.4-0.4,0.9-0.4,1.2
					c0,0.1,0,0.2,0,0.3l0.6,1.1c0,0.1,0.1,0.1,0.2,0.1c0.1,0,0.2,0,0.2-0.1l5.8-6.4c0,0,0,0,0-0.1c0,0,0-0.1,0-0.1
					c0-0.1,0-0.1-0.1-0.2l-0.8-0.8c0,0-0.1,0-0.1-0.1c-0.1,0-0.2-0.1-0.3-0.1c-0.2,0-2.5,1.3-3.9,2.9
					C122.1,105.5,121.7,106.2,121.3,106.9L121.3,106.9z"/>
			</g>
		</g>
		<g>
			<path class="st2" d="M142.6,140.9c-0.3,0.3-1.6,1.3-4.7-0.1c-3.5-1.7-9.3-9.5-12.2-15.8c-2.9-6.4-4.6-14.1-4.6-14.4
				c-0.1-0.3-0.1-0.3-0.1-0.4c0-0.1,1.7-2.3,3.4-4.1c1.6-1.8,3-3.2,3.4-3.3c0.5-0.2,1.4-0.4,2.3,0.3c0.8,0.6,3,2.5,3.4,2.8
				c0.4,0.4,1.8,1.5,2.3,1.9c0.4,0.4,1.1,1.1,1.5,1.9c0.4,0.8,0.4,1.4,0.4,2.5c0,1-0.3,3.3-0.2,4.9c0.1,1.6,0.6,6,1.6,10.3
				c1,4.3,2.9,9.4,3.4,10.6C142.8,139.1,143.1,140.4,142.6,140.9z"/>
			<path class="st0" d="M121,110.1c0.1-0.3,1.8-2.3,3.4-4.1c1.6-1.8,3-3.2,3.4-3.3c0.5-0.2,1.4-0.4,2.3,0.3c0.8,0.6,3,2.5,3.4,2.8
				c0.4,0.4,1.8,1.5,2.3,1.9c0.4,0.4,1.1,1.1,1.5,1.9c0.4,0.8,0.4,1.4,0.4,2.5c0,1-0.3,3.3-0.2,4.9c0.1,1.6,0.6,6,1.6,10.3
				c1,4.3,2.9,9.4,3.4,10.6c0.3,1,0.6,2.2,0.4,2.8c0,0.1-0.1,0.2-0.1,0.2c-0.3,0.3-1.6,1.3-4.7-0.1c-3.5-1.7-9.3-9.5-12.2-15.8
				c-2.9-6.4-4.6-14.1-4.6-14.4C121.1,110.3,121,110.2,121,110.1C121,110.1,121,110.1,121,110.1 M120.8,110c0,0,0,0.1,0,0.1
				c0,0.1,0,0.2,0,0.3l0,0.2c0,0.1,1.7,8,4.7,14.4c2.8,6.1,8.5,14.2,12.3,16c3,1.4,4.5,0.5,5,0.1c0.1-0.1,0.2-0.2,0.2-0.3
				c0.3-0.5,0.1-1.5-0.4-3c-0.1-0.2-0.2-0.5-0.3-0.9c-0.7-2-2.2-6.1-3.1-9.7c-1-4.1-1.5-8.5-1.6-10.3c-0.1-1,0-2.2,0.1-3.2
				c0-0.7,0.1-1.2,0.1-1.6c0-1.1,0-1.7-0.4-2.6c-0.4-0.9-1.2-1.6-1.5-2c-0.3-0.3-1.2-1.1-1.8-1.6l-0.5-0.4c-0.1-0.1-0.2-0.2-0.4-0.4
				c-0.8-0.7-2.3-2-2.9-2.5c-0.9-0.6-1.9-0.6-2.5-0.3c-0.5,0.2-1.5,1.2-3.5,3.4C122.7,107.5,120.9,109.6,120.8,110L120.8,110z"/>
		</g>
		<g>
			<g>
				<path class="st0" d="M127.4,109.7C127.4,109.7,127.3,109.8,127.4,109.7c-1.2,0.9-1.3,1.3-0.2,2.4c0.2,0.2,0.4,0.5,0.7,0.7
					c0.2,0.1,0.7,0.2,1,0.3c0.6,0.1,0.9,0.2,1.1,0c0,0,0.1,0,0.1-0.1c0.2-0.2,0.2-0.5,0.3-1.1c0-0.3,0.1-0.8,0-1
					c-0.1-0.2-0.3-0.5-0.5-0.8C128.9,108.8,128.5,108.9,127.4,109.7z"/>
			</g>
			<g>
				<path class="st0" d="M133.5,117.9C133.5,117.9,133.6,117.9,133.5,117.9c1.2-0.9,1.3-1.3,0.2-2.4c-0.2-0.2-0.4-0.5-0.7-0.7
					c-0.2-0.1-0.7-0.2-1-0.3c-0.6-0.1-0.9-0.2-1.1,0c0,0-0.1,0-0.1,0.1c-0.2,0.2-0.2,0.5-0.3,1.1c0,0.3-0.1,0.8,0,1
					c0.1,0.2,0.3,0.5,0.5,0.8C132,118.8,132.4,118.7,133.5,117.9z"/>
			</g>
			<g>
				<path class="st0" d="M134.6,110.7C134.6,110.7,134.5,110.7,134.6,110.7c-0.9-1.2-1.3-1.3-2.4-0.2c-0.2,0.2-0.5,0.4-0.7,0.7
					c-0.1,0.2-0.2,0.7-0.3,1c-0.1,0.6-0.2,0.9,0,1.1c0,0,0,0.1,0.1,0.1c0.2,0.2,0.5,0.2,1.1,0.3c0.3,0,0.8,0.1,1,0
					c0.2-0.1,0.5-0.3,0.8-0.5C135.5,112.3,135.4,111.8,134.6,110.7z"/>
			</g>
			<g>
				<path class="st0" d="M126.3,116.9C126.3,116.9,126.4,117,126.3,116.9c0.9,1.2,1.3,1.3,2.4,0.2c0.2-0.2,0.5-0.4,0.7-0.7
					c0.1-0.2,0.2-0.7,0.3-1c0.1-0.6,0.2-0.9,0-1.1c0,0,0-0.1-0.1-0.1c-0.2-0.2-0.5-0.2-1.1-0.3c-0.3,0-0.8-0.1-1,0
					c-0.2,0.1-0.5,0.3-0.8,0.5C125.4,115.4,125.5,115.8,126.3,116.9z"/>
			</g>
		</g>
	</g>
	<g>
		<path class="st0" d="M126.8,168.1l-1.4-5.9l-58.2-0.1l-1.6,5.8c0,0.1,0,0.1,0,0.2l0,0h0c0,0,0,0.1,0,0.1c0,2.1,8.9,4.2,30.7,4.2
			C117.9,172.4,126.8,170.2,126.8,168.1C126.8,168.1,126.8,168.1,126.8,168.1z"/>
		<g>
			<ellipse class="st1" cx="96.2" cy="162.1" rx="29.1" ry="3.9"/>
			<path class="st0" d="M96.2,158.2c16.1,0,29.1,1.8,29.1,3.9s-13,3.9-29.1,3.9s-29.1-1.8-29.1-3.9S80.2,158.2,96.2,158.2
				 M96.2,158.1c-14.4,0-29.2,1.5-29.2,4c0,2.5,14.9,4,29.2,4c14.4,0,29.2-1.5,29.2-4C125.4,159.6,110.6,158.1,96.2,158.1
				L96.2,158.1z"/>
		</g>
		<g>
			<g>
				<path class="st1" d="M114.6,3.3c0,0-1.4,4.4-4.4,7c-2.8,2.4-12.4,2.6-14,2.7c-1.6,0-11.2-0.2-14.1-2.7c-3-2.6-4.4-7-4.4-7
					s2.7,27.2,3.8,39c0.7,7,6.7,21.3,11.7,32h6.1c4.9-10.7,11-25,11.7-32C112,30.5,114.6,3.3,114.6,3.3z"/>
				<path class="st0" d="M114.6,3.3L114.6,3.3 M114.6,3.3c0,0-2.7,27.2-3.8,39c-0.7,7-6.7,21.3-11.7,32h-6.1
					c-4.9-10.7-11-25-11.7-32c-1.1-11.8-3.8-39-3.8-39s1.4,4.4,4.4,7c2.8,2.4,12.4,2.6,14.1,2.7c1.6,0,11.2-0.2,14-2.7
					C113.3,7.7,114.6,3.3,114.6,3.3 M114.7,2.4L114.7,2.4c-0.4,0-0.8,0.3-0.9,0.6c-0.1,0.3-1.4,4.2-4.2,6.6c-2,1.7-8.5,2.4-13.5,2.4
					c-5.2-0.1-11.5-0.8-13.4-2.4c-2.8-2.4-4.1-6.5-4.2-6.6c-0.1-0.4-0.5-0.6-0.9-0.6c-0.1,0-0.1,0-0.2,0c-0.5,0.1-0.8,0.5-0.7,1
					c0,0.3,2.7,27.3,3.8,39c0.7,7.1,6.7,21.5,11.7,32.3c0.1,0.3,0.5,0.5,0.8,0.5h6.1c0.4,0,0.7-0.2,0.8-0.5
					c5-10.8,11.1-25.2,11.7-32.3c1.1-11.4,3.6-37.4,3.8-38.9c0-0.1,0-0.1,0-0.2C115.6,2.8,115.2,2.4,114.7,2.4L114.7,2.4z
					 M114.6,4.2L114.6,4.2L114.6,4.2L114.6,4.2z"/>
			</g>
			<path class="st0" d="M112.2,15.9c-0.1-1.3-0.4-1.8-0.7-2.1c-0.4-0.3-1.2-0.4-2.3-0.7c-1.4-0.4-2.1-0.9-2.1-0.9
				c0.3,1.3,0.1,10.8,0,16.1H85.4c-0.1-5.3-0.2-14.8,0-16.1c0,0-0.7,0.5-2.1,0.9c-1.1,0.3-2,0.4-2.3,0.7c-0.4,0.3-0.6,0.8-0.7,2.1
				c-0.2,2.6-0.2,4.8,0.1,6.9c0.2,1.7,0.4,5.2,0.7,8v18.5h1.6v115.1h27.3V49.3h1.6V30.9c0.2-2.8,0.5-6.4,0.7-8.1
				C112.3,20.7,112.3,18.5,112.2,15.9z"/>
			<g>
				<g>
					<path class="st2" d="M88.9,141c-0.2-11.4-2.2-39-2.3-41.5c-0.4-9.5-3.4-42.9-5.1-61.6c-0.8-9.2-3.3-33.5-3.7-34.4
						c-0.4-0.8-0.7-0.7-0.9-0.7c-0.1,0-0.3,0-0.3,0.1c0.1,0.2,0.2,0.5,0.2,0.8c0.5,1.7,3,25.2,3.8,34.4c1.7,18.6,4.7,52.1,5.1,61.6
						c0.1,2.5,2.1,30.1,2.3,41.5c0.1,5.3,0.9,22.7,0.9,26.3c0,0.6,0.1,1.4-0.5,1.8c-0.3,0.2-0.5,0.2-0.9,0.2c0.6,0.2,1,0.1,1.6-0.3
						c0.7-0.6,0.7-1.2,0.7-1.9C89.9,163.7,89.1,146.3,88.9,141z"/>
				</g>
				<path class="st2" d="M88.4,169.3c0.7-0.4,0.5-1.2,0.5-1.8c0-3.6-0.8-21.1-0.9-26.3c-0.2-11.4-2.2-39-2.3-41.5
					c-0.4-9.5-3.4-42.9-5.1-61.6c-0.8-9.2-3.4-32.7-3.8-34.4c-0.1-0.3-0.1-0.5-0.2-0.8c0,0,0,0,0,0.1c0,0.1,3.2,29.3,3.5,37.2
					c0.4,8.2,1.2,22.4,1.6,42.8c0.3,16.3,0,41.6-1.1,57.3c-0.6,9.6-1.3,19.1-1.3,19.1s-0.1,3.1,0.9,4.9c0.9,1.4,2.2,2.9,4.6,4
					c1.2,0.6,2,1,2.6,1.2C87.9,169.5,88.2,169.5,88.4,169.3z"/>
			</g>
			<g>
				<path class="st2" d="M103.4,141c0.2-11.4,2.2-39,2.3-41.5c0.4-9.5,3.4-42.9,5.1-61.6c0.8-9.2,3.3-33.5,3.7-34.4
					c0.4-0.8,0.7-0.7,0.9-0.7c0.1,0,0.3,0,0.3,0.1c-0.1,0.2-0.2,0.5-0.2,0.8c-0.5,1.7-3,25.2-3.8,34.4c-1.7,18.6-4.7,52.1-5.1,61.6
					c-0.1,2.5-2.1,30.1-2.3,41.5c-0.1,5.3-0.9,22.7-0.9,26.3c0,0.6-0.1,1.4,0.5,1.8c0.3,0.2,0.5,0.2,0.9,0.2c-0.6,0.2-1,0.1-1.6-0.3
					c-0.7-0.6-0.7-1.2-0.7-1.9C102.5,163.7,103.3,146.3,103.4,141z"/>
				<path class="st2" d="M104,169.3c-0.7-0.4-0.5-1.2-0.5-1.8c0-3.6,0.8-21.1,0.9-26.3c0.2-11.4,2.2-39,2.3-41.5
					c0.4-9.5,3.4-42.9,5.1-61.6c0.8-9.2,3.4-32.7,3.8-34.4c0.1-0.3,0.1-0.5,0.2-0.8c0,0,0,0,0,0.1c0,0.1-3.2,29.3-3.5,37.2
					c-0.4,8.2-1.2,22.4-1.6,42.8c-0.3,16.3,0,41.6,1.1,57.3c0.6,9.6,1.3,19.1,1.3,19.1s0.1,3.1-0.9,4.9c-0.9,1.4-2.2,2.9-4.6,4
					c-1.2,0.6-2,1-2.6,1.2C104.5,169.5,104.2,169.5,104,169.3z"/>
			</g>
			<path class="st3" d="M108.3,12.1c-0.2-2.2-0.5-3.1-0.5-3.1h-7.7h-7.8h-7.7c0,0-0.4,0.9-0.5,3.1c-0.2,2.6-0.1,6.8,0.4,13
				c1,11.8,2.8,46.9,4.6,84c1.1,23,1.8,55.4,1.8,55.4h1.4h7.8h1.4c0,0,0.7-32.4,1.8-55.4c1.8-37.1,3.7-72.2,4.6-84
				C108.4,18.9,108.5,14.7,108.3,12.1z"/>
			<g>
				<path class="st1" d="M108,12c-0.2-2.2-0.2-3-0.2-3h-7.2h-8.7h-7.2c0,0,0,0.8-0.2,3c-0.2,2.6,0,7,0.5,13.1
					c1,11.8,2.8,46.9,4.6,84c1,21.2,1.7,50.2,1.8,54.7c0,0.4-0.4,0.7-0.4,0.7h0.9h8.7h0.9c0,0-0.4-0.3-0.4-0.7
					c0.1-4.5,0.8-33.5,1.8-54.7c1.8-37.1,3.7-72.2,4.6-84C108,18.9,108.1,14.5,108,12z"/>
				<path class="st0" d="M107.8,9c0,0,0,0.8,0.2,3c0.2,2.6,0,7-0.5,13.1c-1,11.8-2.8,46.9-4.6,84c-1,21.2-1.7,50.2-1.8,54.7
					c0,0.4,0.4,0.7,0.4,0.7h-0.9h-8.7h-0.9c0,0,0.4-0.3,0.4-0.7c-0.1-4.5-0.8-33.5-1.8-54.7c-1.8-37.1-3.7-72.2-4.6-84
					c-0.5-6.2-0.7-10.6-0.5-13.1c0.2-2.2,0.2-3,0.2-3h7.2h8.7H107.8 M107.8,8.1h-7.2h-8.7h-7.2c-0.5,0-0.9,0.4-0.9,0.9
					c0,0,0,0.8-0.2,3c-0.2,2.7,0,7.1,0.5,13.3c0.9,10.6,2.6,42,4.6,84c1,20.9,1.7,48.9,1.8,54.6c0,0-0.1,0.1-0.1,0.1
					c-0.3,0.2-0.4,0.6-0.3,1c0.1,0.4,0.5,0.6,0.9,0.6h0.9h8.7h0.9c0.4,0,0.7-0.2,0.9-0.6c0.1-0.4,0-0.8-0.3-1c0,0,0,0-0.1-0.1
					c0.1-5.7,0.8-33.7,1.8-54.6c2-41.9,3.8-73.3,4.6-84c0.5-6.1,0.7-10.6,0.5-13.3c-0.2-2.2-0.2-2.9-0.2-3
					C108.7,8.4,108.3,8.1,107.8,8.1L107.8,8.1z"/>
			</g>
		</g>
	</g>
	
		<linearGradient id="SVGID_1_" gradientUnits="userSpaceOnUse" x1="629.109" y1="-385.5189" x2="706.1393" y2="-212.6105" gradientTransform="matrix(-0.999 4.381841e-02 -4.381841e-02 -0.999 698.4097 -279.0775)">
		<stop  offset="0" style="stop-color:#BB9A66"/>
		<stop  offset="2.797789e-02" style="stop-color:#C7A871"/>
		<stop  offset="0.115" style="stop-color:#E7D18F"/>
		<stop  offset="0.16" style="stop-color:#F4E09A"/>
		<stop  offset="0.1993" style="stop-color:#E0C787"/>
		<stop  offset="0.2488" style="stop-color:#CCAE75"/>
		<stop  offset="0.2941" style="stop-color:#BF9F6A"/>
		<stop  offset="0.331" style="stop-color:#BB9A66"/>
		<stop  offset="0.7004" style="stop-color:#F6DD8A"/>
		<stop  offset="0.8297" style="stop-color:#D0B273"/>
		<stop  offset="0.917" style="stop-color:#BB9A66"/>
		<stop  offset="0.9825" style="stop-color:#A68050"/>
	</linearGradient>
	<polygon class="st4" points="55.7,67.8 56.9,72.4 53.3,69.2 49.9,72.5 50.9,67.9 46.3,66.6 50.8,65.1 49.6,60.5 53.2,63.6 
		56.6,60.3 55.6,65 60.2,66.3 	"/>
	
		<linearGradient id="SVGID_2_" gradientUnits="userSpaceOnUse" x1="670.4902" y1="-346.6152" x2="749.4931" y2="-169.2787" gradientTransform="matrix(-1 0 0 -1 718.4786 -271.4161)">
		<stop  offset="0" style="stop-color:#BB9A66"/>
		<stop  offset="2.797789e-02" style="stop-color:#C7A871"/>
		<stop  offset="0.115" style="stop-color:#E7D18F"/>
		<stop  offset="0.16" style="stop-color:#F4E09A"/>
		<stop  offset="0.1993" style="stop-color:#E0C787"/>
		<stop  offset="0.2488" style="stop-color:#CCAE75"/>
		<stop  offset="0.2941" style="stop-color:#BF9F6A"/>
		<stop  offset="0.331" style="stop-color:#BB9A66"/>
		<stop  offset="0.7004" style="stop-color:#F6DD8A"/>
		<stop  offset="0.8297" style="stop-color:#D0B273"/>
		<stop  offset="0.917" style="stop-color:#BB9A66"/>
		<stop  offset="0.9825" style="stop-color:#A68050"/>
	</linearGradient>
	<path class="st5" d="M16.7,32.2c6.3,1,11.2,5.9,12.2,12.2c1-6.3,5.9-11.2,12.2-12.2c-6.3-1-11.2-5.9-12.2-12.2
		C27.8,26.3,22.9,31.2,16.7,32.2z"/>
</g>
</svg>
