<?xml version="1.0" encoding="utf-8"?>
<!-- Generator: Adobe Illustrator 25.2.3, SVG Export Plug-In . SVG Version: 6.00 Build 0)  -->
<svg version="1.1" id="Layer_2" xmlns="http://www.w3.org/2000/svg" xmlns:xlink="http://www.w3.org/1999/xlink" x="0px" y="0px"
	 viewBox="0 0 202.5 172.4" style="enable-background:new 0 0 202.5 172.4;" xml:space="preserve">
<style type="text/css">
	.st0{fill:#FFDFA6;}
	.st1{fill:#511B00;}
	.st2{fill:url(#SVGID_1_);}
	.st3{fill:url(#SVGID_2_);}
</style>
<g>
	<g>
		<g>
			<g>
				<path class="st0" d="M150.9,159.3L35.3,136.7c-4.7-0.9-7.8-5.5-6.9-10.2l13-66.2c0.9-4.7,5.5-7.8,10.2-6.9l115.5,22.6
					c4.7,0.9,7.8,5.5,6.9,10.2l-13,66.2C160.2,157.2,155.6,160.3,150.9,159.3z"/>
			</g>
			<path class="st1" d="M151.5,155.9c-0.4,0-0.9,0-1.3-0.1L37.3,133.7c-3.6-0.7-6-4.2-5.3-7.9l12.4-63.5c0.7-3.6,4.2-6,7.9-5.3
				l112.9,22.1c3.6,0.7,6,4.2,5.3,7.9L158,150.5C157.4,153.7,154.6,155.9,151.5,155.9z M51,57.7c-2.8,0-5.2,2-5.8,4.8L32.8,126
				c-0.6,3.2,1.5,6.3,4.6,6.9L150.3,155c1.6,0.3,3.1,0,4.4-0.9c1.3-0.9,2.2-2.2,2.5-3.8l12.4-63.5c0.6-3.2-1.5-6.3-4.6-6.9
				L52.2,57.8C51.8,57.7,51.4,57.7,51,57.7z"/>
			<g>
				<g>
					<g>
						<g>
							<path class="st1" d="M80.9,114.7l2,0.4c1.4,0.3,2.2,1.1,2,2.3c-0.2,1.2-1.3,1.7-2.7,1.4l-1.2-0.2l-0.6,3.2l-0.7-0.1
								L80.9,114.7z M82.1,118.2c1.1,0.2,1.8-0.1,1.9-0.9c0.2-0.9-0.4-1.4-1.5-1.6l-1.2-0.2l-0.5,2.5L82.1,118.2z"/>
							<path class="st1" d="M84.9,122.7l0.2-0.6c0.1,0.1,0.3,0.1,0.5,0.2c0.5,0.1,0.8-0.1,1.2-0.6l0.6-0.8l-1.8-5.3l0.8,0.2l1.5,4.5
								l3-3.6l0.8,0.2l-4.4,5.2c-0.5,0.6-1,1-1.8,0.9C85.3,122.8,85.1,122.8,84.9,122.7z"/>
							<path class="st1" d="M92.7,117l4.1,0.8l-0.1,0.6l-3.4-0.7l-0.5,2.4l1.4,0.3c1.5,0.3,2.4,1.1,2.1,2.5
								c-0.3,1.3-1.4,1.8-2.9,1.5l-2.1-0.4L92.7,117z M93.5,123.7c1.2,0.2,1.9-0.1,2.1-1c0.2-0.9-0.4-1.5-1.6-1.7l-1.3-0.3l-0.5,2.7
								L93.5,123.7z"/>
							<path class="st1" d="M96.4,124.9l0.3-0.6c0.1,0.1,0.2,0.1,0.4,0.2c1.2,0.2,1.9-1,2.6-4.5l0.3-1.5l4.2,0.8l-1.4,6.9L102,126
								l1.2-6.3l-2.8-0.5l-0.2,1.2c-0.7,3.4-1.5,5.1-3.2,4.7C96.8,125.1,96.6,125,96.4,124.9z"/>
							<path class="st1" d="M105.9,119.6l4.3,0.8l-0.1,0.6l-3.6-0.7l-0.5,2.4l3.4,0.7l-0.1,0.6l-3.4-0.7l-0.5,2.7l3.7,0.7l-0.1,0.6
								l-4.4-0.9L105.9,119.6z"/>
							<path class="st1" d="M111.7,120.7l0.7,0.1l-1.1,5.8l0,0l5-5.1l0.8,0.2l-1.4,6.9l-0.7-0.1l1.2-5.9l0,0l-5,5.1l-0.8-0.2
								L111.7,120.7z M113.3,119l0.5,0c0,0.5,0.3,0.9,0.8,1c0.5,0.1,1-0.1,1.1-0.6l0.4,0.2c-0.2,0.7-0.9,1.1-1.7,1
								C113.7,120.4,113.2,119.8,113.3,119z"/>
						</g>
					</g>
				</g>
			</g>
		</g>
		<g>
			<path class="st1" d="M90.7,109.4c-3.2-0.6-5.4-3-5.6-6.2l4-0.5c0.1,1.4,1,2.6,2.3,2.9c1.4,0.3,2.8-0.4,3.1-2.3
				c0.4-2.3-1.3-3.3-3-3.6c-1.2-0.2-3.1-0.2-4.4,0l2.6-11l10.6,2.1l-0.8,3.9l-7-1.4l-0.7,3c0.5,0,1.3,0,1.8,0.1
				c3.5,0.7,5.9,3.3,5.1,7.4C97.8,108.5,94.1,110.1,90.7,109.4z"/>
			<path class="st1" d="M107,112.6c-4.9-1-5.9-6.1-4.8-11.6c1.1-5.5,3.9-9.8,8.8-8.8c4.9,1,5.8,6,4.8,11.5
				C114.7,109.2,111.9,113.6,107,112.6z M110.3,96.1c-2.2-0.4-3.3,3.3-3.8,5.7c-0.5,2.5-0.8,6.4,1.4,6.8c2.2,0.4,3.3-3.3,3.8-5.8
				C112.1,100.4,112.4,96.5,110.3,96.1z"/>
		</g>
	</g>
	
		<linearGradient id="SVGID_1_" gradientUnits="userSpaceOnUse" x1="559.0272" y1="-350.5722" x2="649.0372" y2="-148.5284" gradientTransform="matrix(-1 0 0 -1 718.4786 -271.4161)">
		<stop  offset="0" style="stop-color:#BB9A66"/>
		<stop  offset="2.797789e-02" style="stop-color:#C7A871"/>
		<stop  offset="0.115" style="stop-color:#E7D18F"/>
		<stop  offset="0.16" style="stop-color:#F4E09A"/>
		<stop  offset="0.1993" style="stop-color:#E0C787"/>
		<stop  offset="0.2488" style="stop-color:#CCAE75"/>
		<stop  offset="0.2941" style="stop-color:#BF9F6A"/>
		<stop  offset="0.331" style="stop-color:#BB9A66"/>
		<stop  offset="0.7004" style="stop-color:#F6DD8A"/>
		<stop  offset="0.8297" style="stop-color:#D0B273"/>
		<stop  offset="0.917" style="stop-color:#BB9A66"/>
		<stop  offset="0.9825" style="stop-color:#A68050"/>
	</linearGradient>
	<path class="st2" d="M123.7,30.2c7.1,1.2,12.7,6.8,13.9,13.9c1.2-7.1,6.8-12.7,13.9-13.9c-7.1-1.2-12.7-6.8-13.9-13.9
		C136.5,23.4,130.9,29,123.7,30.2z"/>
	
		<linearGradient id="SVGID_2_" gradientUnits="userSpaceOnUse" x1="593.759" y1="-347.7895" x2="653.1206" y2="-214.5415" gradientTransform="matrix(-1 0 0 -1 718.4786 -271.4161)">
		<stop  offset="0" style="stop-color:#BB9A66"/>
		<stop  offset="2.797789e-02" style="stop-color:#C7A871"/>
		<stop  offset="0.115" style="stop-color:#E7D18F"/>
		<stop  offset="0.16" style="stop-color:#F4E09A"/>
		<stop  offset="0.1993" style="stop-color:#E0C787"/>
		<stop  offset="0.2488" style="stop-color:#CCAE75"/>
		<stop  offset="0.2941" style="stop-color:#BF9F6A"/>
		<stop  offset="0.331" style="stop-color:#BB9A66"/>
		<stop  offset="0.7004" style="stop-color:#F6DD8A"/>
		<stop  offset="0.8297" style="stop-color:#D0B273"/>
		<stop  offset="0.917" style="stop-color:#BB9A66"/>
		<stop  offset="0.9825" style="stop-color:#A68050"/>
	</linearGradient>
	<path class="st3" d="M101.2,44.1c4.7,0.8,8.4,4.5,9.2,9.2c0.8-4.7,4.5-8.4,9.2-9.2c-4.7-0.8-8.4-4.5-9.2-9.2
		C109.6,39.6,105.9,43.3,101.2,44.1z"/>
</g>
</svg>
