<?xml version="1.0" encoding="utf-8"?>
<!-- Generator: Adobe Illustrator 25.2.3, SVG Export Plug-In . SVG Version: 6.00 Build 0)  -->
<svg version="1.1" id="Layer_1" xmlns="http://www.w3.org/2000/svg" xmlns:xlink="http://www.w3.org/1999/xlink" x="0px" y="0px"
	 viewBox="0 0 590.4 119.4" style="enable-background:new 0 0 590.4 119.4;" xml:space="preserve">
<style type="text/css">
	.st0{fill:#FFFFFF;}
</style>
<g>
	<path class="st0" d="M590.4,51.7c-2.7,5.5-7.9,7.4-13.2,9.1c-3.7,1.2-7.2,2.7-10.8,3.9c-1.5,0.5-2,1.2-2.1,2.8
		c-0.4,4.1,0.8,7.2,4,10c5.4,4.8,10.4,10.2,15.6,15.3c5,5,5.3,11.9,0.8,16.3c-4.7,4.6-11.1,4.2-16.3-1.1c-4.6-4.5-9.2-9-13.6-13.6
		c-1.4-1.5-2.2-1.4-3.6,0.1c-4.6,4.8-9.3,9.4-14,14c-4.9,4.8-11.4,5-15.9,0.6c-4.5-4.5-4.3-11,0.5-15.9c6-6.1,12.1-12.1,18.1-18.1
		c1.6-1.6,2.7-7.1,1.8-9.1c-0.4-0.9-1.3-1-2.1-1.3c-5.5-2-11-4-16.5-6c-6.3-2.3-9.4-8.3-7.2-14.1c2.2-5.9,8.3-8.5,14.7-6.2
		c6.7,2.4,13.4,4.8,20,7.3c1.6,0.6,3,0.7,4.7,0.1c6-2.3,12.1-4.4,18.1-6.6c9-3.3,13.3-1.5,17.3,6.8v5.7H590.4z"/>
	<path class="st0" d="M475.6,0c1.4,0.6,2.8,1.1,4.1,1.7c8.7,3.8,13.4,13,11.4,22.4c-1.9,8.8-10.3,15.4-19.4,15.4
		c-9.2-0.1-17.4-6.8-19.2-15.6c-1.9-9.4,2.9-18.5,11.7-22.2c1.1-0.5,2.5-0.4,3.3-1.5h8.1V0z"/>
	<path class="st0" d="M556.9,0c0.6,1,1.7,0.8,2.5,1.1c8.9,3.2,14.4,12.3,12.9,21.6c-1.5,9.5-9.8,16.7-19.4,16.7
		c-9.4,0.1-18-7-19.6-16.2c-1.6-9.4,3.7-18.7,12.7-22c0.9-0.3,2.1-0.2,2.8-1.2C548.8,0,556.9,0,556.9,0z"/>
	<path class="st0" d="M377.7,73.6c8-10.4,16-20.8,23.9-31.2c1.5-2,3.2-3.8,5.8-4.5c6.9-2,13.3,2.7,13.4,10.1c0.1,11.8,0,23.5,0,35.3
		c0,6,0,12,0,18.1c0,6.5-4.4,11.1-10.3,11.1c-5.8-0.1-10-4.6-10.1-11c-0.1-7.4,0-14.7,0-22.1c0-0.9-0.1-1.8-0.2-3.4
		c-1.1,1.2-1.8,2-2.4,2.8c-7.4,9.6-14.8,19.3-22.2,28.9c-3.2,4.2-7.4,5.6-11.9,4c-4.3-1.5-6.9-5.2-6.9-10.2c0-17.8,0-35.6,0-53.4
		c0-6.3,4.4-10.8,10.3-10.7c5.8,0,10,4.4,10.1,10.6c0.1,8.5,0,17,0,25.5C377.4,73.4,377.5,73.5,377.7,73.6"/>
	<path class="st0" d="M350.2,103.7c-0.5,2.4-0.9,5.7-1.7,8.8c-1,3.8-4.3,6.4-8.1,6.8c-3.7,0.4-7.6-1.6-9.2-5.2
		c-0.8-1.9-1.9-2.2-3.7-2.2c-10,0.1-20,0.1-30,0c-1.8,0-2.9,0.2-3.7,2.1c-1.5,3.6-5.3,5.6-9.1,5.2c-3.9-0.3-7.3-3-8.3-6.9
		c-0.8-3-1.3-6.2-1.6-9.3c-0.4-4.1,1.5-7.3,5.3-9c1.7-0.8,2.4-1.9,3-3.5c5.5-15.2,11.1-30.3,16.6-45.5c2-5.4,4.8-7.4,10.5-7.7
		c1.8-0.1,3.7-0.1,5.5,0.1c4.7,0.3,7.8,2.7,9.4,7.2c5.5,15.3,11.1,30.5,16.7,45.8c0.6,1.7,1.4,2.8,3.2,3.7
		C348.6,95.8,350.2,99,350.2,103.7 M312.5,64.6c-3.4,9.5-6.6,18.2-9.7,26.9c-0.6,1.6,0.5,1.5,1.5,1.5c5.4,0,10.7-0.1,16.1,0
		c1.8,0,2.1-0.4,1.5-2.1c-2.4-6.4-4.7-12.9-7-19.4C314.2,69.5,313.5,67.5,312.5,64.6"/>
	<path class="st0" d="M436.9,102.7c0-4.6,1.3-7.3,3.6-9.5c6.3-6.2,12.5-12.4,18.7-18.7c1.1-1.1,2-7.4,1.2-8.7c-0.4-0.7-1.3-0.8-2-1
		c-5.9-2.1-11.8-4.2-17.6-6.4c-5-1.9-7.5-6.5-6.8-11.7c0.6-4.7,4.4-8.4,9.4-9.2c2.1-0.3,4,0.2,5.9,0.9c6.6,2.4,13.2,4.7,19.7,7.2
		c1.7,0.6,3.2,0.7,4.9,0.1c6.6-2.5,13.3-4.9,20-7.3c6.4-2.3,12.5,0.3,14.6,6.2c2.2,5.9-0.8,11.8-7.2,14.2c-5.4,2-10.8,4-16.2,5.8
		c-1.6,0.6-2,1.4-2.2,3.1c-0.4,3.9,0.9,6.8,3.8,9.5c5.7,5.2,11.1,10.9,16.5,16.4c3.2,3.2,4.2,7.1,2.7,11.3c-1.5,4.2-4.5,6.6-8.9,7.2
		c-3.8,0.5-6.9-0.9-9.6-3.6c-4.7-4.7-9.4-9.3-14-14c-1.4-1.4-2.2-1.5-3.6-0.1c-4.8,5-9.7,9.8-14.7,14.6c-3.4,3.3-7.5,4.2-12,2.2
		C439.2,109.4,437.1,106,436.9,102.7"/>
	<path class="st0" d="M97.8,112c-10.6-0.3-21-6.2-27-18.3c-7-14-6.5-28.3,2.2-41.5c13.4-20.1,43.6-19.6,56.3,0.9
		c8.5,13.7,8.5,28.2,0.7,42.3C124.1,106.2,113.2,112,97.8,112 M86.7,74.6c0.1,2.5,0.4,5.2,1.3,7.7c2.1,5.8,6.8,9.3,12.8,9.3
		c5.9,0.1,10.8-3.3,12.9-9.1c2-5.6,2-11.3-0.5-16.8c-2.4-5.2-6.6-7.8-12.3-7.8c-5.8,0-9.9,2.7-12.3,7.9
		C87.2,68.6,86.8,71.5,86.7,74.6"/>
	<path class="st0" d="M212.2,74.6c0-8.6,0-17.2,0-25.8c0-6.8,4-11.1,10.8-11.2c12-0.2,24-0.1,36,0c6.2,0.1,10.3,4.2,10.2,9.7
		c-0.1,5.5-4.5,9.3-10.6,9.3c-7.7,0-15.4,0.1-23,0c-2,0-2.8,0.3-2.8,2.6c0.1,6.7,0,6.7,6.7,6.7c4.8,0,9.6,0,14.4,0
		c5.5,0.1,9.3,3.7,9.3,8.8c0,5.1-3.8,8.9-9.2,8.9c-6.2,0.1-12.5,0.1-18.7,0c-1.9,0-2.4,0.5-2.4,2.4c0,6.9-0.1,6.9,6.8,6.9
		c6.4,0,12.9,0,19.3,0c6.1,0,10.4,4,10.4,9.5c0,5.6-4.2,9.5-10.4,9.5c-11.9,0-23.8,0-35.7,0c-6.7,0-10.9-4.3-10.9-11
		C212.2,92.2,212.2,83.4,212.2,74.6"/>
	<path class="st0" d="M38.4,112c-21.1-0.1-35-12.2-37.7-29.6c-2.3-14.5,1-27.5,12.6-37.3c12.3-10.4,32.1-9.9,44,1
		c4.2,3.8,4.7,10,1.2,14.2s-9.8,5-14.2,1.4c-4.7-3.9-9.8-4.8-15.3-2.5c-5.7,2.4-7.7,7.4-8.3,13.1c-0.3,3.3-0.1,6.5,0.9,9.6
		c3.5,10.3,15.3,13.2,23.1,5.4c3.2-3.2,6.9-4.5,11.3-2.9c4,1.4,6.2,4.4,6.7,8.6c0.3,3.1-0.7,5.8-2.9,8.1
		C52.8,108.5,44.3,112,38.4,112"/>
	<path class="st0" d="M141.5,73.1c0.2-11,4.5-22,15.3-29.7c12-8.6,30.1-7.6,41.3,2c4.9,4.2,5.6,10.2,1.8,14.8
		c-3.7,4.5-9.9,4.8-14.9,0.9c-7.8-6.2-18.5-3.2-21.8,6.2c-1.8,4.9-1.8,10,0,14.9c3.5,10.1,15.4,12.8,23,5.2
		c4.5-4.5,10.7-4.8,14.9-0.7c4.1,4,4.2,10.1-0.1,14.6c-9,9.5-20.2,12.7-32.9,9.8c-13.2-3-21.1-11.9-25-24.5
		C142,82.8,141.6,78.9,141.5,73.1"/>
</g>
</svg>
